<svg xmlns="http://www.w3.org/2000/svg" fill="currentColor" viewBox="0 0 586.62 320"><path d="M277 0h2l1 237h-3zm156 1h2v234h-2zM38 146q-3 0-4 3l-11 26h21v5H0l1-4c5-2 13 1 14-3l10-25 7-17 13-31q6-18 15-34l2-1c3 0 10 20 12 24l17 43 17 41q1 3 3 2h15v5q-28-1-57 1v-7h17l-10-26-4-2H38m34-7-8-20q-4-11-9-22l-16 37-1 5zm124 36h22v5l-10-1h-45l-9 1v-5h22V75l-3-1h-19v-5h57c17 0 34 4 42 20 6 10 3 25-5 32q-7 8-19 11-16 3-33 2v41m36-57q8-17 0-34c-7-10-24-9-36-8v50q0 2 2 1c11 0 28 2 34-9m12 200c-1 2-28 0-27 1l-1-2c0-3 7 0 10-1l-1-30q0-4-2-7c-6-5-14 0-21 2v35c4 1 10-2 8 2l-1 1h-23l-2-1v-2h9l-1-41h-7l-2-1 1-2 18-1 1 6 9-4q8-5 17-1 4 2 5 7c8-5 20-13 29-6q5 3 5 10v33h7l2 1-2 2h-23l-2-1v-1c0-2 6 0 9-1l-1-30q0-5-3-7c-6-5-13-1-19 3l-1 34c3 1 12-2 9 2m125 1-2-1c-2-3 8-1 9-2v-31q-1-9-11-9l-10 4q-2 1-2 5l-1 31h9l-1 3h-24l-2-1c-3-3 8-1 9-2v-41q-6 0-9-1l1-3h17l1 7 13-7q12-4 20 8 8-7 17-9 13 0 16 11v35c4 2 10-2 9 2l-2 1h-24l-2-1v-2h10q-1-16-1-33-1-6-9-6t-14 6v31c-1 5 11 0 9 4l-2 1zm109-4c-9 7-26 4-37 4l-1-5v-68h-7l-2-1v-2h19v33l5-2q8-6 17-3 8 3 12 12 8 17-6 32m-18 2q12 0 15-12 3-13-4-24-7-8-16-3-4 1-5 5v32zm60-1q11 1 19-5 1 3-2 4-11 6-24 4-14-4-16-18-3-10 1-19 7-14 22-12c13 2 15 10 19 21h-33l1 8q1 13 13 17m9-28-3-8q-2-5-8-6-13 1-11 13zm-213 28 12-5v2q-9 9-23 7-9-2-15-8-8-11-5-24c3-13 6-14 14-17q11-3 20 4 7 6 9 16h-33q0 8 3 14 5 12 18 11m1-28-2-8q-4-8-14-5-6 4-6 12zm228 31v-2c1-2 7 0 9-2v-40q-5 0-9-1l1-2 18-1q-1 4 1 8 5-3 9-8c3-2 10 1 10 4q-2 5-2 11c-3 0-4-9-10-7l-8 5v32h9v2l-2 1zM314 176c-10-8-9-25-2-33 12-16 38-21 58-21V91q0-8-7-14-13-6-26 1c-6 3 9 6 2 17q-5 6-12 5t-10-8q-2-6 2-10 10-12 25-14 12-1 24 1c12 3 22 13 22 26v68q-1 6 2 12 2 3 5 1 4-2 7-6 3-2 6 1c1 5-14 14-27 11q-10-4-12-13h-3q-10 9-22 12-17 7-32-5m55-15q2-4 1-8v-20l-1-5q-11-1-20 3-20 6-20 27c1 9 8 17 18 15q12-2 22-12m124-12-8 19-2 7h22l-1 5h-51v-5h19q4 0 4-3l10-25 11-26 10-26q5-15 12-29l3-1 2 1 16 37 29 72 17-1v7q-28-2-57 0v-6l18-1-12-27-3-1h-34q-3 0-5 3m39-10-7-17-10-25-5 11-13 31z"/></svg>