<svg xmlns="http://www.w3.org/2000/svg" viewBox="0 0 586.62 320" fill="currentColor"><path d="M276.599-.021l2.68-.005.455 236.83-2.68.005zM432.89.5h2.28v234.54h-2.28zM37.95 146.11c-2.28.02-3.47.9-4.23 2.62-3.87 8.72-8.03 17.07-11.16 26.41 7.49-.49 14.29-.49 21.45-.45.87 1.8.75 3.79.27 5.64l-17.75-.3c-3.75-.06-7.23.05-10.96.1L0 180.35c.22-1.09-.28-4.34 1.11-4.79 4.47-1.47 12.69 1.45 14.27-2.7l9.55-24.98c2.27-5.94 4.38-11.34 7.08-17.08 4.83-10.24 8.54-20.56 12.8-31.09 4.61-11.4 9.05-22.43 14.82-33.23.46-.86 1.43-1.54 2.13-1.45 3.43.45 10.1 19.59 11.89 23.95l17.58 42.73 16.74 41.69c.51 1.26 1.82 1.87 3.14 1.76 4.99-.41 9.77-.63 14.85-.42.96 1.74 1.01 3.72.32 5.68-19.21-1.23-38.16-.73-57.64.72-.34-2.29-.06-4.44-.12-6.75 5.92.03 11.47.35 17.81-.12-3.04-9.03-6.52-17.5-10.19-26.1-.58-1.36-2.21-2.09-3.65-2.1l-14.07-.14-20.5.19zm33.72-7.42c-2.31-7.13-4.84-13.26-7.47-19.75-2.98-7.36-5.22-14.61-9.04-22.27l-16.06 37.5c-.7 1.63-1.28 3.07-1.29 4.86l33.86-.34zm124 36.59l22.31-.71c.38 1.94.37 3.41.1 5.37-3.36-.63-6.49-.75-10.05-.75l-45.44-.04c-2.98 0-5.44.15-8.5.73-.39-.51-.9-4.59.32-4.6l21.7-.28-.05-100.46c-1.1-.99-2.27-.69-3.53-.68-6.15.04-12.11 1.12-18.31.04-1.55-.27-1.4-4.65-.01-5 2.62-.66 5.22.1 7.95.1l48.57-.11c17.47-.04 33.92 3.84 42.71 20.27 5.23 9.78 2.17 24.4-5.62 32.06-5.23 5.15-11.05 8.66-18.45 10.28-10.88 2.39-21.82 2.57-33.24 2.18.64 5.1-.23 10.11-.09 15.36.22 8.72.44 16.93-.36 26.23zM231.78 118c5.53-10.72 5.1-23.47.04-33.95-6.96-10.46-24.19-8.71-35.5-8.3l.02 49.82c0 1 .84 1.96 1.84 1.92 10.73-.36 28.06 1.26 33.6-9.49zm12.69 199.7c-1.58 2.56-28.45.71-27.89 1.27-.58-.58-.38-1.59-.4-2.18-.11-2.3 6.61.11 9.66-1.1-.91-9.99-.47-19.74-.64-29.73-.05-2.83-.57-5.42-2.57-7.22-5.68-5.14-13.87 0-20.38 2.75l.03 34.21c3.29 1.75 9.64-1.47 8.13 2.09-.24.56-1.05 1-1.87.97-7.61-.28-14.95.1-22.57.37-.79.03-1.73-.34-2.2-.67s-.72-1.83.15-2.08c2.79-.81 5.52.34 8.62-.22l-.2-41.17-7.32-.16c-.76-.02-1.29-.58-1.55-1.14-.21-.46-.2-1.64.79-1.68l18.03-.68c.14 2.06-.23 3.81.45 5.72 3.3-.75 5.86-2.76 8.85-4.21 5.58-2.69 11.73-3.85 17.39-1.03 2.72 1.36 3.85 4.36 5.39 7.1 7.93-5.24 19.97-13.11 28.81-6.24 2.7 2.1 4.85 5.82 5.06 9.97.55 11.17.36 22.19.13 33.55l6.87-.12c.93-.02 1.63.39 1.72 1.16.1.88-.64 1.54-1.74 1.54H251.7c-.68 0-1.46-.11-1.89-.54-.3-.3-.21-.94 0-1.56.66-1.81 5.85.4 8.75-.84l-.44-29.79c-.04-2.94-.88-5.74-2.94-7.43-5.96-4.91-13.31-.48-19.61 3.11l-.23 33.96c2.8 1.26 11.32-1.57 9.12 2zm124.39 1.09c-.6 0-1.19-.27-1.46-.61-2.9-3.54 7.39-.83 8.58-1.93l-.31-31.18c-.05-5.41-4.73-9.89-10.21-8.7-3.62.79-6.99 2.33-10.27 3.81-1.85.83-2.55 2.28-2.56 4.34l-.16 31.52c2.83 1.02 5.67-.06 8.3.24.81.09.27 2.49-.87 2.49l-24.38.06c-.61 0-1.22-.28-1.5-.62-3.05-3.57 7.6-.82 8.63-1.83l.26-41.26c-2.61-1.31-7.91.95-8.59-.94-.26-.71-.65-2.82.58-2.76 5.81.26 11.29.23 17.23-.71l.47 6.92 12.99-6.2c7.78-3.71 16.48-.62 20.18 7.67 4.94-4.69 11.13-8.03 17.72-8.88 7.63-.98 14.02 3.41 15.19 10.93.88 11.53.71 22.78.15 34.58 3.87 1.8 9.86-2.01 9.15 2.26-.12.7-.82.86-1.74.86l-24.03-.07c-.78 0-1.4-.23-1.77-.66-.34-.38-.57-1.9.03-1.91l9.23-.16c-1.42-10.46-.01-21.76-.85-32.73-.33-4.31-5.24-6.78-9.29-6.56-5.07.28-9.89 2.59-13.53 5.84.11 10.93.07 21.06-.45 31.62-.26 5.24 11.2-.64 9 3.55-.24.45-.98 1-1.77 1h-23.93zm109.09-4.25c-9.11 7.54-26.4 4.94-37.31 4.72-.7-1.88-.6-3.36-.61-5.36l-.3-67.72-7.22-.55c-.7-.05-1.34-.56-1.7-.94-.29-.3-.53-1.59.05-1.61l19.31-.54.11 33.32c1.89.19 3.29-1.19 4.67-2.06 5.47-3.45 10.97-4.6 17.27-2.51 5.38 1.78 9.08 5.49 11.75 11.36 4.87 10.69 3.68 23.85-6.02 31.89zm-18.02 2.44c7.99.03 13.15-4.33 14.96-11.8 1.91-7.89.64-17-3.8-23.97-3.81-5.99-10.96-6.54-16.48-2.94-1.79 1.17-4.28 1.97-4.29 4.52l-.14 32.52c3.34.73 6.44 1.66 9.75 1.67zm60.24-1.4c6.9 1.64 13.52-1.26 19.09-5.02.94 1.97-.61 3.62-2.27 4.61-7.19 4.31-15.59 6.17-23.66 3.8-8.86-2.6-14.92-9.28-16.82-18.25-1.36-6.41-1.28-13.08 1.58-19.06 4.01-8.4 12.87-12.37 21.77-11.3 12.85 1.55 15.51 9.34 19.28 20.67l-32.91-.23c.64 2.99.82 5.45 1.06 8.45.59 7.33 5.12 14.49 12.87 16.33zm8.74-27.99c-.83-3.33-1.8-5.08-2.75-7.54-1.6-3.28-4.7-6.21-8.63-6.32-7.11-.2-12.28 6.55-10.74 13.38l22.12.48zm-213.05 28.43c4.7-.82 7.84-2.86 11.84-4.83.3-.15.73.36.59.57s-.1.97-.33 1.18c-6.33 5.85-14.44 7.79-22.89 6.57-5.88-.85-10.91-3.06-14.69-7.95-5.06-6.54-7.13-15.27-5.78-23.46s6.84-14.01 14.79-16.83c6.39-2.26 13.8-.84 19.48 3.61 4.86 3.8 7.46 10.03 8.91 16.01-5.15.5-9.76-.21-14.72-.25l-18.29-.14c.47 5.3 1.14 10.05 2.85 14.78 2.77 7.67 9.88 12.19 18.24 10.73zm1.37-28.08c-.31-2.69-.85-5.04-1.9-7.55-2.14-5.12-8.74-8.41-13.95-5.79-4.56 2.3-6.48 7.58-6.83 12.53l22.67.8zM545.4 318.5c-.99 0-.66-1.45-.43-1.86 1.06-1.84 6.61.49 8.91-1.27l-.12-40.33c-3.02-.7-6.81 1.03-8.45-.94-.39-.47-.46-2.39.37-2.42 6.1-.26 12.05-.92 18.29-.69-.05 2.75-.52 5.4.54 7.82 4.08-1.53 5.96-5.28 9.61-7.93 2.45-1.78 9.72.81 9.86 3.99.16 3.56-3.01 7.04-1.78 11.08-3.67.19-4.44-8.72-9.85-6.72-2.96 1.09-5.61 3.05-8.19 5.27l-.27 31.48 8.62.21c.72.02.54 1.29.38 1.7-.2.52-.85.82-1.66.82l-25.83-.21zM314.35 176.21c-10.21-8.27-9.34-24.8-2.69-33.57 12.2-16.07 38.66-20.96 58.15-20.64l-.24-30.75c-.04-5.73-1.72-11.01-6.26-14.54-8.46-4.18-18.4-3.58-26.61.93-5.6 3.07 9.19 6.31 1.81 17.59-2.06 3.14-7.1 5.73-11.33 5.25-4.61-.52-9.01-4.32-10.61-8.51-1.38-3.6.63-7.13 2.77-10.1 5.73-7.99 15.1-12.44 24.76-13.81 8.32-1.18 15.57-.41 23.68 1.42 12.25 2.77 22.04 12.48 22.1 25.81l.29 68.1c.02 4.06.14 7.77 1.6 11.45.77 1.94 3.27 1.96 5 1.23 3.07-1.3 4.65-3.97 6.94-6.39 1.53-1.61 5.46-.61 6.05 1.56 1.37 5-14.06 13.81-27.07 10.42-6.12-1.6-10.28-7.17-12.12-12.66-.3-.9-1.71-.26-2.16.14-6.53 5.93-14.41 9.73-22.86 12.25-10.75 3.21-22.1 2.18-31.18-5.19zm54.45-15.32c1.82-2.01 1.07-6.04 1.01-8.21-.19-6.87-.64-13.09.13-19.87.16-1.44-.1-3.17-.68-4.38-7.2-1.18-13.77.5-20.49 2.49-12.31 3.66-21.08 13.44-19.99 26.71.75 9.06 8.26 17.06 17.93 15.44 8.29-1.39 16.34-5.84 22.08-12.18zm124.45-11.94l-7.84 18.87c-.98 2.36-2.49 4.29-2.3 6.95l21.61.1c.53 1.92.5 3.7-.52 5.34-17.05-.87-33.85-1.08-51.09 0-.33-1.41-.43-3.1.36-4.96h19.01c2.38.01 2.96-1.41 3.53-3.38 2.51-8.74 6.35-16.75 9.84-25.16l10.71-25.77 10.63-26.33c3.9-9.67 7.28-19.26 12.2-28.34.49-.91 1.75-1.64 2.48-1.68.83-.05 1.75.87 2.23 1.83 5.87 11.8 10.58 23.82 15.6 36.13l29.49 72.3 17.08-.4c.48 2.24.36 4.35.18 6.3-19.32-1.13-38.23-1.59-57.44.32-.94-2.11-.85-4.25-.03-6.25l17.82-.39c-3.86-9.48-7.06-18.56-11.32-27.49-.43-.91-2.36-1.05-3.24-1.05l-34.38-.05c-2.22 0-3.76 1.03-4.63 3.13zm38.66-9.91c-1.73-6.51-4.13-11.8-6.55-17.47l-10.52-24.71c-1.38 4.11-2.95 7.23-4.45 10.87l-12.96 31.37 34.49-.06z"/></svg>
