<svg xmlns="http://www.w3.org/2000/svg" fill="currentColor" viewBox="0 0 839.27 320"><path d="M0 217h577v5H0zm635 58c1 4-11 30-12 35h-11q1-4-1-9 1-6-1-10l-8 19q-5 2-10-1l-1-30c-4-5 6-4 9-4 4 5-1 11 2 16l6-16h10l2 16 5-16zm-241 36 2-2 10 4h3l1-3 1-4-5 4c-20 0-7-37 8-24l2-2h8q-1 10-3 20 1 10-9 16c-6 0-20 2-18-9m18-15c1-4-5-5-5-2q-2 3-1 6c3 3 8 0 6-4m355-12c2 3-10 23-11 26q-4 2-9-1l-1-9v-1l-2-1-5 12q-4 2-9-1c0-8-4-16-4-24h10v13l7-14h8q2 6 2 14c4-4 3-10 7-14zm-555 26h-9l6-35h18c11 2 8 18-1 22l-12 1q1 7-2 12m10-26-5-1-1 6c3 3 9-2 6-5m238 25q-6 4-12 1l-5-31q-2-1-1-4h11l3 23 10-23h11zm337 1v-2l-2 1q-7 6-13-3c-2-9 1-22 12-23l4 2v1h1l2-11h9v6q0 5-2 9-1 10-3 20zm0-11c3-11-9-6-6 3q5 2 6-3m-458 11q-1-3-3-1-6 5-11-1c-7-9 4-32 16-22l1-6 1-5h10l-5 28-1 7zm-1-9q2-2 1-5c2-3-4-5-5-1-2 0-2 7 0 7q2 2 4-1m363 10q-6-4-5-9v-4c0-9 9-19 18-12q-1-5 2-11h8q3 2 0 5-1 15-4 29-5 3-10-1-5 5-9 3m11-13q1-6-4-5-4 4-2 8 0 2 4 1zm108 2q-1 3 2 4 3 0 5-2h8c2 12-28 14-25-5 1-13 24-20 28-5l1 4v-5 8-2h-1v1l-1 2zm8-6c1-5-8-3-7 1zm-343 16q-9 4-14-3c-1-13 10-11 19-14q-4-4-7 0-4 2-9-1c2-9 15-10 22-7 6 8 0 17 0 25h-7q-2-4-4 0m0-6q4-2 3-5l-7 2q0 5 4 3m76-2c2 0 13-1 8 4-6 8-23 8-24-4-4-21 33-26 27-2q-9 0-18 1c0 3 5 4 7 1m2-7q-1-6-6-3-2 1-2 3zm-19-10-4 25h-8q-1-3-4-1-7 6-12-3 0-10 3-22l10 1-2 12q-3 5 2 5 4-4 3-9l2-8zm-166 11-2 14h-10q2-13 5-25h7l2 2q11-8 14 4l-3 18q-4 3-9 1l1-16q-2-3-5 1m264 15c-16-1-13-23 0-27 23-7 21 28 0 27m7-14q0-3-2-4c-7-4-10 13-1 9q3-2 3-5m-368 2c-5 17-30 16-27-3 4-17 32-17 27 3m-10 2v-8c-9-5-10 17 0 8m37-12-12 21h-8l-2-9-1-4-1-7q-3-3-1-6h9l2 15v-1h1l6-14 8 1q1 2-1 4m384 13-1 7q-5 3-10 1l1-7q1-15 5-28h8l1 4q0 4-2 8l-1 8zm-182 8h-9l5-35h8q3 2 1 5zm-296-61q-5 6-11 5-9 0-13-7 0-2 2-2 3-2 4 2 6 5 14 0c-2-4-8-2-12-4q-5-1-7-5c0-11 22-11 23-1q-1 2-4 1l-2-2q-7-5-12 0l2 2c7 1 20 2 16 11m446 61q0-13 4-25 5-2 10 1l4-3q3 2 4 3l-4 7q-3-1-4 1l-2 3-3 12q-4 3-9 1m-427 0q2-13 5-26l8 1 1 1q3-2 6-2c6 1 1 6-1 9-6-2-7 6-7 10q-2 3-2 7zM49 251l-2 3-3-2c0-5 2-17-8-10v10q-2 2-3 2-2 0-2-3c0-3-3-20 5-13 6-6 9 2 14-1q7-3 12 3v12l-4 2-2-3 1-9q-4-4-8 0zm352-4h-12l-3 6-4 1-2-2 10-17q1-6 7-5l12 22-2 2q-2 0-3-2zm-2-4-5-8-4 8zm-379 4H9c-2 3-3 8-8 6l1-3c15-32 13-21 27 2q-1 3-3 2-2 0-3-3zm-1-4-4-8-4 8zm341 67h-8l4-25 9-1-3 21q1 3-2 5m-70-64q2 1 1 4-4 4-10 4-7-1-10-6c-4-14 19-17 21-4zm-4-4c-1-3-7-4-10 0zm2 4h-13c2 6 10 5 13 0m-202 2q-4 6-11 6-10 0-11-10c2-10 16-11 21-3v5q-2 0-1 1zm-6-5c1-4-10-4-9-1zm1 5zl-1-1H70c1 5 8 5 11 2m695 62h-10c3-9 2-17 5-26h9zm-637-56-6-2c-5-9 8-9 14-10q-5-5-11 0l-3 1v-4c4-4 13-5 18 0v10q3 2 1 5l-6-2q-3 3-7 2m-2-5c3 3 11 1 9-3-2 2-8-1-9 3m182 52-2 9h-9l4-25h10q-1 8-3 16m97-45-1 3h-4v-23q3 0 6 1c6-4 15 2 14 10-2 6-10 9-15 5zm10-11c0-7-11-7-11 0s11 7 11 0m370 21c-13 3-21-16-10-24 17-11 31 18 10 24m-6-4c16 5 19-19 3-18-10-1-12 15-3 18m-319-16q5-4 12-3l2-1-1-2h-8q-2 2-5 3v-4q9-7 18 0l1 11v3l-3 1q-2-3-5 0h-5l-5-2q-3-2-1-6m5 4q7 2 9-4-2 0-5 1l1-1c-2 1-8 1-5 4m67 0q-3 4-9 4-5 1-8-3c-13-14 18-23 18-6l-3 1 3 1zm-4-7c-1-5-9-5-10-1zm1 3h-12q1 4 6 4 5-1 6-4m-101 11q-1 3-3 3l-2-4v-17q1-5 4-1c20-10 21 23 1 14zm10-12c0-7-11-7-11 0s11 7 11 0m113 7q-3-7 2-5 5 4 9 3l1-2-2-1c-5 1-16-4-10-9 4-4 16-3 16 3-3 4-9-5-13 0 27 4 9 18-3 11m-203-9q1 5-3 8-3 3-8 3-9 0-10-8c-1-12 18-14 21-3m-5-1c-4-5-14-2-11 5s13 3 11-5m158 12q-8 0-10-6c5-4 5 4 14 2v-2c-5-2-15-1-13-9q9-6 16 0 2 2 0 3h-3q-3-3-8-2v2l12 3 1 3q-2 6-9 6m-274-6q-3 6-11 6-5 0-8-5c-8-16 24-19 19-1m-9 2c7 0 6-10 0-10-9-2-9 12 0 10m-68-8c-1 4 2 9-1 11h-4l1-17q1 0 4 2 8-5 14 2v12l-3 2q-2-1-2-3l-1-10q-4-2-8 1m94 0c-5-7-14 2-7 7q4 4 8-2c2-3 7 0 3 3q-3 4-8 4-8 0-10-7c-4-11 18-16 19-5zm60 15q-2 3-8 2l-1-2 2-2h4v-4l-7-13q1-3 5-1l5 11q4-5 6-11l3-1 1 3zm-199-15c-2 7 6 11 10 5l3-1 2 3q-3 5-10 5-6 0-10-7c-3-10 13-15 19-8v4h-3q-6-6-11-1m252-2v13h-5v-13h-3v-3l3-1v-3q3-4 10-3v3l-5 1v3h4v3zm-67 9 3 1 1 3c-10 3-10-6-9-13h-3v-3l3-1v-4h5c-2 7 3 2 3 6v1q-2 2-3 1zm-207-5v8l-3 2-2-2v-14l2-2 3 2q4-3 7-1c2 7-8 1-7 7m368 9q-3 2-5-1v-15q2-2 5 1 5-4 8 0l-3 3h-3l-2 2zm90-11v10q0 3-3 2c-4-4 0-11-2-15l2-3 3 1q1 0 4-1l3 1q2 4-3 4zm-285 10q0 2-2 2l-3-2 1-15h4zm-159 0q-1 2-3 2-2-1-2-4l-1-11q2-4 6-1zm391-2v3l-4 1-1-4v-11l1-2q4-1 4 3zm281 33c-2-1-13 1-9-5l1-3c7-1 12-2 8 8m-414-1-9 1q-2-5 2-8h7zm-45 1-8-1 1-7h9q1 3-2 8m-216-48c-4 0-3-5 0-5q3 0 3 2 0 3-3 3m159-5q3 0 3 2 1 2-1 3c-4 2-5-4-2-5m232 0c3-1 5 4 2 5q-6 0-2-5M682 0h10c44 1 127 41 143 106 18 81-58 147-132 154l-13 1h-18l-10-1c-2 0-23-3-23-5v-5c7 0 15 5 22 2l12-3q4 1 7-1c7 3 20 0 27 0q4-2 10-1l18-6q5 1 10-1c31-6 56-32 73-58h-1c-3 2-7 10-11 9l2-12 7-8 3-6c4-2 3-5 5-7l2-1v3l1 1v-2q0-3 3-5 0-4-2-1l-1-3c-4 2-6-5 0-4l1-2 3 1c6-30-5-61-24-85-2 2 1 3 1 5q-5 2-3 7 0 6 4 5c11 14-1 23 8 29 4-5-2-11-1-17q2-2 3 1v3c2 4 5 12-1 15l1 4h-2l-2-3-2 1-1-4-1-2-3 3q0 1 2 0l1 5c7 6 2 19-6 23v2q7 6 1 12-2-3-5-3 0 5 4 7v6q2 0 2 3h6v2l-6 2-5-3-3-5c-2 0-3-4-1-4l3 2 1-1v-1c-5-2-1-7-4-9h-3q0-5-4-6-4 3-6 7-1 2-3 3 2 6-3 11l-7-14-3 1q-1-3-4-4t-6 2l-4-1c-1-4-6 3-10-4h-1q1 3 4 6h3q2-3 5 0c9 2-12 17-16 16v1l1 1 8-3c0 10-9 13-14 20q-1 4 1 7c2 7-5 7-7 11q1 4-3 5-6 11-16 11h-5q0-4-4-7 1-4-2-7-2-2-2-3 0-2 1-4c5-4-2-10-5-13q3-3 1-6-4 2-6-1c-5-1-8 3-13 1-4 3-11-3-12-6q-4-3-5-6l2-5c-2-5 4-11 9-13q0-4 4-6v-3l-3-1 1-10 9 1q3-6-4-6v-2q5 0 7-4l-7 2q0-5 2-6l-1-2-2 1q0 5-6 5 1-5 3-8l3 1v-3l1-3q2-2 3 1l2 1-2 2 3 4q4 2 1 5 4 1 5-4 2 0 4-2-3-5 2-5l-1 4q3 2 6 2 3-3 6-2l1-6 4 1-2-2 1-3h-3l-2-5c1-1 6-5 2-6q-2 1-2 4l-3 2 1 5q3 1-1 3 0 6-5 6 1-3-2-4v-2l-4 2-3-2v-6c7-4 9-12 14-18l4-2q5-2 7 2 6 0 11 3 0 6-5 5 0 3 2 4l5-6v-5h2l1 3h1v-2l4-3q4 1 6-4c3-1 5 3 7 3-5-5-5-4-4-11l2-1 1 2 2-1h2v-3l3-2-2-2 1-3 4-4v-5q-8 1-12-3c-3 0-4-5-1-5l7 4q5 0 6 4h2l1 2q8-3 8 5 3 1 4-1l3 1v-3l1-1q3 0 5 4 5-2 2-5 0-3 2-2h4l2-1C729-9 633-6 573 42l2 1v4l1 7q2 1 3-1 4 2 5 7 4-2 3-6h-3q3-6 8-8 3 4 2 8h4l-3 6q2 2-1 4-4 1-4-2h-6 1l-1 1q2 2 5 1l1 2q4 0 7 2l1-6 2-1-2-1q0-5 5-6l-1 2 2 1 1-2h2v3l-5 2-1 6q1 2-1 5 5-1 5-5-2-3 1-6 1-2 3-2l4 2h3v5q3 2 2 3l2 2q0 2-2 3l2 4c3 1-1 5-3 5v-4q-4 3-1 5 0 4-5 4l-4-6q-4 0-2-4 6 2 7-3l-1-3q-1-4-4-2l-1 2-1 3-3 1-1 3q3 1 1 3l-5-1v-1l-2-1-8 5c-2 5 3 9 6 13l-1 5 2 1c2-3 1-6 5-7q0-2 1-2l-2-2 3-3q0-3 3-5 4 2 6 6c-4 2 0 7 1 2h3v8l4 4v4c-4 3 3 5 1 7l-2 2-2-2h-3v-3q3 0 3-4-4 4-8 1l-1-1h-1v2l2 1-2 2q2 2 5 2 1 2-1 3h-3q-2 3-4-1l-2 1q-2 0-2 3c-7-2-6 8-12 9l-3 1c-1 3 3 6-1 9-3-5-1-11-8-8-2-3-7-3-6 1-3 3-2 9 2 9q2 1 2-2 2-1 3 1c2 1-1 4-1 6q3 1 5 3l-1 3q-1 4 3 4l4 2q5-5 9 0l7 2c4 8 17 7 14 16 4-2 7 3 11 3 2 1 8 3 9 6q-1 4-6 7 1 7-4 9h-4l-2 3-6 7-2-1v3h-5l-2 6 2 1-2 5c-5 1-10-7-8-11q-4-4-3-9v-9q0-6-4-9-6-6-11-16 3-2 2-5 5-2 3-7h-3q-4-2-6-7l-5-5q-1-3-4-3c-2-3-8-6-6-10l-3-10-2 2-1-11q-2-3-1-7c-1-6 4-12 6-18q-2-2 0-5t1-7c4-5 1-18-6-11h-4l-11 19q-4 3-6-1c25-53 83-84 140-85m77 78c5-3 0-7-1-10h-2l1 2q3 3 2 8m-26 47c1 0 7 2 8 1v-2l-5-2 1-4-2 1q0 3-2 4-2-2-4-3l-1 1-2 5q3 3 7-1m-28 15q6 0 10 3l3-3q6 0 10 2 3-3 7-2l1-6q-2 2-5 1-3 2-5-1-2 0-2-4l-2-1-1 1 1 3q-6 1-8-5l-6-5-2 1 6 4q3 4-2 6v-3l-8-6q-3 3-6 2l-4 4q0 5-7 6 4 2 7-2l13-1zm42 18-5-5q-2-6-7-8l9 14q1 1 2 1h1z"/><path d="M734 72q-3 1-5-1-3-3-2-7v-4l6-6h3v2q-6 5-4 13 3 0 2 3M77 117c4-7 22-27 20-35-3-3-12-3-17-4-1 2-1-1-3 0v-9l3-1 56 1c39-3 18-9 44 34l2 1c4-25 43-31 65-34 38-6 79 2 117-1l3-1v3q-5 7-5 16c-3 6-1 18-1 24h-17l-1-1V98c-13-19-55-21-77-16-15 0-23 18-9 27 15 10 39 10 56 15 21 3 46 6 63 21 14-19 33-42 44-63-5-6-15-5-22-6V66l45 2 40-3c12 30 38 68 55 95 10 14 19 37 39 34v10h-76q-4 1-10 1c-5-12-15-32-22-42l-2-4v1-1l-3-6h-65c-5 12-12 24-11 38 4 5 12 3 18 3q2 3 1 6 0 7-6 4c-4 0-77-2-78 1-5-4-10 1-15 0q-27 3-54 2c-24-1-59-3-84 0-2-7-11-23-14-29l-1-2q-1 0-1-1l-9-17q-2-1-2-2-1-2-4-1H78q-9 17-12 34c1 9 13 6 19 7v10c-22 0-62-2-85 0v-10c18 1 30-15 40-28zm366 25h14l-27-46-25 45zm-315-11-13-23h-1l1-1-6-9q-12 22-25 45h52zm180 58q11-7 5-18-9-8-23-12c-28-7-62-10-87-22h-2c12 14 23 39 36 52q35 13 71 0M795 257l-2-2-2 1q2 3-2 5l-2-2v-10c3-8 18-1 9 6q4 2 3 5-3 2-4-3m0-8h-3l-2 1 1 2 4-1z"/></svg>