<svg xmlns="http://www.w3.org/2000/svg" fill="currentColor" viewBox="0 0 352.29 132"><path d="M0 90.01h242.63v1.68H0v-1.68zm263.24 23.75h3.79l-5.2 14.07h-3.95l-.87-8.88-3.78 8.89h-3.95l-.59-14.12h3.85l.08 7.88 3.36-7.87 3.81-.03.78 7.84 2.69-7.78h0zm-95.36 17.88c-1.53-.39-1.99-1.82-1.67-3.54l2.78.31c.54.06.61.22.91.66.59.86 2.24.57 2.65-.41.36-.85.48-1.75.53-2.64-4.46 4.04-7.98-1.26-5.45-6 1.13-2.69 5.41-3.87 6.9-.88l.28-1.5 3.35.03-1.8 10.58c-.79 3.77-5.42 4.25-8.49 3.39h0zm5.79-10.58c-.17-.56-.72-.84-1.19-.85-2.03-.23-3.11 4.65-.61 4.58 1.57-.23 2.24-2.27 1.8-3.74h0zm145.78-3.38h3.47l-5.15 10.14h-3.21l-.96-6.14-2.88 6.13-3.23.03-1.85-10.19h3.48l.52 6.34 2.98-6.34 3.26-.03 1 6.39 2.58-6.34h0zM98.09 116.5c.07 5.47-3.49 6.34-7.91 6.06l-.86 5.27h-4.05l2.33-14.12h7.06c1.68.02 3.33.98 3.43 2.79zm-4.2.64c-.55-.83-1.93-.53-2.73-.59l-.5 3.18 1.87-.05c1.19-.13 1.94-1.49 1.36-2.54h0zm102.37-3.38l4.09-.02-7.17 14.08-4.38.02-2.64-14.08h4.2l1.31 10.18 4.6-10.12zm98.01 13.78c-3.32-3.02-.59-10.6 3.86-10.14.95.06 1.68.47 2.31 1.22l.82-4.92 3.63.06-2.31 14.05-3.36.03.15-1.5c-1.26 1.53-3.31 2.32-5.09 1.19h0zm4.77-2.98c1.4-1.74 1.02-5.2-1.3-4.07-2.03 1.31-1.54 6.66 1.3 4.07zm32.69 3.49c-4.04-.44-3.34-6.16-1.61-8.65 1.32-2.08 4.59-2.86 6.24-.81l.83-4.89 3.63.06-2.3 14.06-3.37.03.17-1.51c-.97 1.1-2.08 1.79-3.58 1.71h0zm3.93-6.94c-.11-.48-.71-.82-1.13-.84-1.61-.09-2.48 2.45-1.93 4.27.13.44.75.71 1.1.69 1.61-.1 2.38-2.34 1.96-4.12zm-197.81 6.64c-3.56-1.64-1.51-10.91 3.48-10.36.94.05 1.65.44 2.32 1.22l.83-4.9h3.64l-2.31 14.09-3.37.04.15-1.52c-1.21 1.47-2.94 2.2-4.74 1.42h0zm3-2.53c2.3.13 3.09-4.56 1.18-4.92-1.87-.75-3.57 4.55-1.18 4.92zm58.98 2.58c-.8-.26-1.33-.97-1.44-1.7-.7-3.99 5.03-4.23 7.6-5.04.03-.36.03-.86-.08-1.07-.24-.45-2.45-.66-3.11.92l-3.3-.39c.38-1.52 1.51-2.5 2.98-2.84 2.44-.48 7.43-.92 7.11 2.82-.16 1.44-1.16 5.95-.75 7.35h-3.36l-.2-1.26c-1.46 1.33-3.49 1.86-5.45 1.23h0zm2.22-2.63c.63 1.92 4.05-.01 3.53-2.18-.97.46-3.73.59-3.53 2.18zm26.42-7.53l-1.66 10.17-3.37.02.2-1.62c-1.38 1.54-3.73 2.59-5.54 1.25-.72-.57-.98-1.65-.83-2.58l1.18-7.25h3.62l-1.03 6.35c.11.31.25.67.4.83 1.2.69 2.17-.42 2.5-1.53l.91-5.64h3.62zm-68.18 2.79c-.99.23-1.28.98-1.55 1.79l-.94 5.6h-3.6l1.66-10.17 3.34-.02-.18 1.6c1.55-2 5.61-2.93 6.31.1.26 1.79-.88 6.67-1.09 8.5h-3.64l1.02-6.21c-.13-.9-.4-1.27-1.34-1.18h0zm75.98 4.44l3.52.33c-2.5 4.5-11.84 3.93-10.33-2.62.93-6.95 13.13-7.37 10.83 1.11h-7.27c-.45 2.16 2.04 2.81 3.25 1.18h0zm.66-3.06l-.06-.99c-.05-.86-.91-1.27-1.72-1.12-1.03.19-1.69 1.12-1.85 2.11h3.62zM348 124.9l3.5.29c-1.65 2.66-4.51 3.23-7.49 2.69-4.61-.99-3.29-8.27.43-9.83 4.32-1.95 9.1.12 7.55 5.63h-7.28c-.35 2.08 1.78 2.86 3.29 1.22h0zm.64-3.09l-.08-1.13c-.05-.76-.87-1.09-1.6-.99-1.07.14-1.79 1.09-1.94 2.12h3.61zm-230.49.65c-.19 5.99-10.59 8.21-11.06 1.42-.43-7.23 11.74-9.53 11.06-1.42zm-6.52 2.85c2.79 1.07 3.97-4.91 1.81-5.21-2.29-.67-3.77 4.32-1.81 5.21zm165.17-3.78c.64 6.76-11 9.66-11.11 1.94-.28-6.18 10.55-9.02 11.11-1.94zm-4.6 3.25c.82-.99 1.08-2.41.86-3.61-.16-.87-1.01-1.25-1.83-1.04-2.92.84-2.39 7.49.97 4.66h0zm-145.63-7.11h3.63l-5.68 10.17-3.2-.03-2.27-10.16h3.75l.8 6.47 2.97-6.44zm163.63 10.12l-3.63.03 2.31-14.09 3.63-.02-2.31 14.08h0zm-75.78-.01l-3.62.03 2.31-14.09 3.62-.03-2.31 14.08h0zm-112.42.04l-3.63.02 1.67-10.19h3.36l-.2 1.56c1.09-1.73 2.57-2.4 4.25-1.27l-1.58 2.73c-3.46-1.65-3.31 5.25-3.87 7.14h0zm179.32 0h-3.62l1.67-10.17 3.35-.02-.17 1.55c1.09-1.7 2.54-2.35 4.24-1.26l-1.6 2.78c-3.41-1.75-3.32 5.26-3.87 7.12h0zm-129.5-.03l-3.61.04 1.65-10.19h3.63l-1.67 10.14zm-18.4.02l-3.62.03 1.67-10.18 3.61-.02-1.66 10.17h0zm192.72-.01l-3.62.03 1.67-10.19h3.61l-1.66 10.16h0zM90.09 101.41c.94 3.33-9.26 4.62-9.92-.02l1.5-.06c.59 2.86 6.86 2.4 6.9.57.03-.46-.33-1.03-.84-1.14-1.89-.67-6.87-.63-7.07-3-.52-2.85 8.25-4.02 9.1.04l-1.56.12c-.4-2.51-5.93-2.02-5.98-.43-.04.38.29.94.72 1.03 2 .65 6.6.51 7.15 2.9h0zm-69.86 2.76l-1.48.02v-4.23c0-.32-.2-.87-.43-1.04-.29-.23-.82-.3-1.27-.32-.98-.02-2.14.5-2.16 1.6l-.05 4h-1.56v-6.36l1.39-.03.07.88c1.35-1.37 4.32-1.43 5.26.12 1.29-1.46 5.15-1.83 5.57.6l.03 4.78h-1.49l-.05-4.68c0-.72-1.01-.9-1.57-.91-.94-.02-2.19.36-2.2 1.39l-.07 4.18h0zm148.39-2.65h-5.27l-1.38 2.68-1.67-.06 4.71-8.73 1.81-.02 5.06 8.77-1.81.06-1.46-2.7h0zm-4.78-.97h4.25l-2.21-4.21c-.28.93-1.57 3.33-2.04 4.21zm-154.99.97H3.58l-1.38 2.69-1.69-.04 4.78-8.81h1.76l5.07 8.79-1.81.06-1.45-2.7h0zm-4.77-.98l4.24.02-2.21-4.23c-.41 1.06-1.47 3.2-2.03 4.21h0zm170.56 6.11h-1.57v-8.76l1.37-.11.08.83c1.96-1.84 6.12-.95 6.42 1.89.52 3.3-3.89 4.98-6.29 3.06v3.09zm4.46-4.3c.49-.8.42-1.93.05-2.65-.88-1.67-3.52-1.6-4.39.04-1.55 2.95 2.46 5.32 4.34 2.61h0zm5.29 4.3h-1.56v-8.81l1.38-.06.09.83c2.01-1.93 6.21-.86 6.41 2.02.39 3.23-3.97 4.83-6.31 2.92v3.1zm2.17-3.16c2.27.2 3.4-2.51 2.11-4.16-.89-1.05-2.43-1.1-3.5-.36-1.75 1.31-1.09 4.6 1.39 4.52h0zm-130.88-.61c-.55-2.57 4.55-2.32 6.29-2.67.03-.36 0-.8-.17-1.06-.52-.79-3.96-1.11-4.4.59l-1.48-.14c.32-2.34 7.65-2.99 7.56.09.06 1.02-.14 3.56.38 4.49-.34.03-1.07.05-1.41-.03-.17-.04-.31-.54-.35-.72-2.2 1.37-5.96 1.26-6.42-.56h0zm5.24.29c.88-.37 1.18-1.23.99-2.13l-3.87.58c-2.15 1.12.42 2.67 2.88 1.55h0zm137.03-.39c-.3-2.58 4.48-2.17 6.23-2.57.71-2.28-4.28-2.13-4.53-.43l-1.44-.19c.81-2.74 7.66-2.53 7.54-.04.03 1.08-.13 3.62.33 4.64h-1.3c-.2.01-.38-.57-.42-.75-2.3 1.47-6.15 1.16-6.4-.66zm5.27.37c.85-.38 1.13-1.19 1-2.11l-3.86.56a1.18 1.18 0 0 0-.83.77c-.17 1.15 1.94 1.56 3.69.78h0zm23.8-.84c.35-.2 1.12-.09 1.56.09-1.42 3.23-8.99 2.5-8.22-1.87.37-3.98 8.79-3.88 8.28.71h-6.75c.01 2.48 3.89 3.09 5.13 1.07h0zm.03-1.86c-.1-2.63-4.91-2.56-5.08 0h5.08zm-106.2 1.74l1.52.1c-.79 2.22-4.22 2.5-6.38 1.6-2.55-.96-2.45-4.82.05-5.78 2.45-1.13 6.68-.26 6.42 3.11h-6.76c-.02 2.59 4.1 3.1 5.14.96h0zm.03-1.75c-.2-2.67-4.93-2.51-5.1.01h5.1zm-87.78 2.8c.87-.35.71-1.51 2.56-.87-1.36 3.13-8.42 2.64-8.25-1.39.03-1.19.61-2.2 1.7-2.74 2.43-1.31 6.97-.47 6.63 2.99h-6.72c-.12 2.01 2.49 2.71 4.08 2.01zm1.09-2.79c-.19-2.62-4.9-2.57-5.1 0h5.1zm115.17 3.22c-2.53 1.48-7.28.69-7.06-2.88.07-1.29.9-2.35 2.24-2.8 2.45-.91 6.52 0 6.24 3.21-.06 1.01-.42 1.93-1.43 2.47zm-.12-2.92c-.07-2.33-3.39-2.91-4.81-1.4-.78.85-.78 2.3-.1 3.2 1.55 1.83 5.27.94 4.91-1.81zm-50.47 2.88c-2.47 1.47-7.16.86-7.11-2.64 0-1.32.66-2.36 1.9-2.87 2.52-1.16 7-.19 6.55 3.26-.1.92-.43 1.74-1.34 2.26h0zm-.7-1.02c2.14-2.89-2.06-5.55-4.29-3.24-2.27 2.84 2.03 5.7 4.29 3.24zm145.23-.52c.66 2.43-6.48 3.55-7.45.3.5-.15 1.04-.22 1.41-.16.32.58.68 1.04 1.32 1.16 1.73.32 3.38-.13 3.21-1-.06-.32-.43-.56-.78-.64l-3.85-.87c-.57-.13-1.04-.77-1.09-1.25-.53-2.08 6.17-3.1 6.93-.16l-1.46.06c-.79-1.66-4.2-1.02-4.03-.07.03.17.34.5.5.53l4.06.89c.63.14 1.16.71 1.24 1.21h0zm-24.35.02c.53 2.49-6.48 3.48-7.48.26l1.48-.18c.36 1.94 4.74 1.53 4.5.19-.06-.28-.46-.56-.78-.63l-3.97-.91c-.51-.12-.95-.81-.98-1.21-.51-2.14 6.27-3.06 6.92-.16l-1.45.04c-.75-1.56-3.96-1.09-4.04-.17-.02.19.3.6.49.64l4.09.9c.62.14 1.15.71 1.21 1.23h0zm-82.35-4.19l-3.91 7.4c-.85 1.62-2.85 1.8-3.5 1.28-.16-.13-.12-.78.09-.8 1.54.02 2.04-.11 2.56-1.58l-3.38-6.29 1.58-.09 2.57 5.15c.32-.87 2.07-4.2 2.52-5.08.38-.1.7-.1 1.47.02h0zm-67.88.83a1.64 1.64 0 0 0-1.27 1.61l-.04 3.83h-1.47v-6.35l1.27-.03.1.88c1.3-1.17 3.06-1.23 4.58-.75.97.3 1.4 1.08 1.39 2.04l-.02 4.21H71.8l-.02-4.29c0-1.12-1.48-1.56-3.06-1.14h0zm-17.67 4.75c1.17 0 2.03-.5 2.33-1.59l1.43.11c-.57 2.59-4.72 3.05-6.82 1.38-4.27-4.59 4.63-8.21 6.65-3.81-.5.14-.86.19-1.41.22-.98-2.3-5.02-1.36-4.75 1.2-.04 1.53.99 2.54 2.58 2.49h0zm54.56 0c1.19 0 2.04-.47 2.33-1.6l1.42.11c-.69 3.56-8.28 3.04-7.85-1.17 0-3.74 6.61-4.33 7.73-1.21l-1.45.18c-.97-2.32-5.03-1.36-4.75 1.18-.04 1.53.99 2.55 2.56 2.5h0zm234.36 5.22c-.12-1.18-.27-4.47-.33-5.7l-2.19 5.64c-.13.05-.45.15-.57.1-.31.01-2.01-5.34-2.18-5.63l-.34 5.6h-.88l.49-6.35c.19-.27.93-.28 1.24-.09l1.95 5.32c.43-1.34 1.44-4 1.99-5.3.29-.16.84-.16 1.23-.06l.42 6.48h-.84zM154.54 98.63v5.55l-1.54.01v-5.56l-1.28-.03.03-.75 1.26-.07c-.48-2.46 1.91-2.93 3.81-2.41.21 2.04-2.66-.62-2.27 2.42l1.56.04c.2.04.18.7 0 .79l-1.57.02h0zm-26.62 5.48c-1.39.51-3.25.1-3.25-1.1v-4.38l-1.13-.02.02-.78 1.1-.03.02-1.58 1.5-.62v2.19l1.47.04.04.77-1.5.03.02 4.25c0 .57 1.44.38 1.48.5l.24.73h0zm104.17.09l-1.56-.02v-6.35l1.36-.05.1.97c.85-1.27 2.24-1.34 3.46-.71l-.57.94c-3.75-1.26-2.66 3.1-2.8 5.21h0zm-192.94-.01h-1.49v-6.36l1.34-.02.07.92c.85-1.1 2.05-1.41 3.47-.7l-.49.9c-1.15-.29-2.63-.26-2.79 1.14l-.09 4.11zm154.96 0h-1.53v-6.36l1.33-.03.05.95c.88-1.14 2.1-1.41 3.49-.71l-.48.88c-1.26-.31-2.7-.24-2.83 1.37l-.03 3.88h0zm-58.78 12.13l-3.64.02.44-2.63h3.6l-.4 2.61h0zm192.72 0l-3.63.02.4-2.62h3.62l-.39 2.6zM43.53 97.79h1.48v6.44h-1.48v-6.44zm164.66 0h1.53v6.44h-1.53v-6.44zm-54.48 18.53l-3.62.03.44-2.63h3.59l-.41 2.6h0zm-42.95-18.53h1.48v6.44h-1.48v-6.44zm219.86 10.91l-.91.06v-5.86l-2.09-.01c-.17 0-.15-.69.03-.7h5.14v.69l-2.19.03v5.79zM43.53 95.34h1.48v1.23h-1.48v-1.23zm166.19 1.25l-1.49-.07-.06-1.17 1.54-.02v1.26zm-98.96-1.25h1.48v1.23h-1.48v-1.23zm199.47-13.23l.71-1.09c-.63-1.97.65-.9 2.03-2.69l.59-.79c.39.22.5.81.3 1.31l-1.39 3.35c-.33.8-1.05 1.47-1.97 1.14-.17-.23-.43-.98-.27-1.23h0zm31.12-16.92l-.95.31c-.09-.39-.58-1.3-.39-1.7.08-.15.4-.33.52-.45l.54-.89c.34-.53.98-1.79 1.25-2.36 0-.05.55.32.5.48l-.33.98c.63.74-.04 1.82-.25 2.59-.23.85.1.87-.87 1.04h0zM307.2 28.86c-.25-.41-1.23-.03-1.03-.51.04-.09.19-.34.17-.43-.14-.6-.29-.69.19-1.19l-.34-.44c.54-.79-.24-1.24.35-1.78.14-.59.53-1.11 1.22-1.3.38-.1.57-.56.74-.95.07-.18.6-.14.69.03.46.96-1.45 1.19-1.96 3.71.26.55.05.43-.33.73.64.35-.05 1.34 1.55 2.35-.48.27-.86.46-1.26-.21h0zm-27.6 7.96l-1.63.66-1.13-.55c-.25-.34-.11-1.03.05-1.34l-.72-.42c.35-.02.48.05.83-.22l.23.84c.72-.81 1.41-.26 2.31-.8.27.22.62.54.89.92.18.26-.5.78-.82.91h0zm58.96 30.81c-1.19-.02-1.59-1.49-2.27-2.22l-1.38-1.15.86-.24c.66.54 1.34.82 2.07 1.15.19.35.53.8.9 1.12.25.21.09 1.07-.18 1.33h0zM292.01 22.7l-.11-.42c-.28.23-.23.26-.56-.07l-.3.76c-.41-.29-.67-.75-.83-1.25l-.32-.28c-.07-.07.06-.43.16-.41.21.02.55.31.75.45.08.06.17-.25.22-.43l.69.94-.31-1.16c-.02-.09.41-.1.46-.02l.2.39 1.13.86c-.21.23-.42.49-.46.69l-.39 1.98-.98-.78.76-.66-1.11.04 1-.65h0zm52.02 20.74l-.58 1.01c-.23-.61.15-1.13.57-1.56.25-1.78.43-1.9-.27-3.7.75-.26.97 2.21 1.17 2.64.16.62-.38.96-.48 1.82 0 .06-.13.1-.17.06l-.24-.27h0zm-7.11 19.18c1.22.14.89.82 1.36 2.02-1.62.23-1.03-1.58-2.24-2.41-.09-.09.24-.5.35-.46l.53.85h0zm-22.31-45.4l.32.24c.06.04-.04.27-.11.26l-.38-.03c-.65-.04-1.96-.37-1.61-1.18.49-.22 1.1-.15 1.2-.02l.58.72h0zm2.16.21l-.97.99-.88-1.69c.82.15 1.11.27 1.85.7zm-4.37-1.77c.38.19.44.85.03 1.02-.22.09-.74-.18-.81-.42-.1-.33-.11-.44-.12-1.06l.91.46h0zm27.38 52.28c-1.48.5-.95-.83.02-.38l.81-.51c.21.03.62.15.89.24l-1.72.65zm4.18-31.01c.06.23-.04.89-.21 1.11-.05.07-.43.24-.43.15.1-.31-.34-1.28-.43-1.57l1.08.3h0zm-.79 19.22l-.37-.7-.02-1.49c.28-.11.53.32.51.61l-.12 1.58h0zm.38 7.46l-.48.8.15-1.44c.64.19.89.75.62 1.35l-.28-.7zm1.05-4.46l-.52-.85.72-.76c.17.44-.05 1.15-.2 1.61h0zm-1.02-13.56c-.27-.31-.52-.46-.13-.92l.39.63-.06.27-.13.32-.07-.31h0zm-83.96 1.65l.33-.31.35.37-.33.31-.35-.37zm84.36 14.71l-.43.21s0-.29.05-.28l.38.07h0z"/><path d="M233.16 49.84c-.41-1.29.1-2.52-.71-3.77-.28-.58-.04-1.53 0-2.17s-.04-1.28.2-1.78l1.93-4.38.38.66c.46-.89.25-1.85-.09-2.78a58.89 58.89 0 0 1 1.11-4.54c.18-.65.31-1.24.15-1.84l-.33.4.22-1.58c-1.07-1.48.05-1.75-.68-2.05l-.35.48c-.09.12-.58.01-.66-.11.33-.62 1.5-.82 1.06-.9-1.18-.14-2.25 2.22-4.4 1.81a50.83 50.83 0 0 0-4.89 8.01l-2.09-.02c21.74-44.89 94.17-47.02 120.87-5.92 28.61 47.57-32.31 88.08-76.1 75.81l-.03-1.71 7.91 1.38s1.76-.48 2.58-.88l1.94-.22c.81-.09 1.4-.39 2.21-.44l2.54-.14c.41-.79.25.03 1.61.02l2.73-.06c1.04-.17 3.09-.26 4.14-.19 1.38.02 2.64-.04 3.95-.48.42-.14 1.06-.16 1.41-.21.25-.04.67-.35.93-.21.82.47 1.33.02 2-.21l3.04-1.01.89-.18c.84-.36 1.92-.79 2.83-.92.27.08.84.3 1.12.25l3.19-.56c1.02-.02 2.08.03 2.99-.57l1.89-1.08c10.37-4.3 19.27-12.4 25.16-21.95.55-.89.63-1.46-.09-1.14-.79.81-2.75 2.78-3.58 3.46-.2.18-.51.44-.7.53-.04.02-.25-.19-.22-.23 1.03-1.23.32-4.06 1.29-5.04l2.07-2.16c.3-.32.54-.97.76-1.35l.99-1.75c.11-.2.33-.5.52-.49h.37c.11.01.32-1.93 1.78-2.49l-.31 1.37.61.28s.14-.06.15-.07l.71-2.8.2.2-.02.36.31.08.61-2.75c.02-.07-.09-.39-.12-.45-.04-.09-.33.05-.36.14l-.17.55-.24.53c-.05.11-.39-.02-.5-.08l-.12-.75c-.03-.18-.5-.06-.68-.05l-.46.05c-.08 0-.01-.27.04-.32l.18-.2s-.06-.05-.05-.04l-.39.06c-.1.02-.12-.34-.06-.41l.32-.36c.07-.08.28.2.27.31 0 .07-.05.3-.01.36l.29.1c.24.09 0-1.29 1.25-1.42.95 0 .76.34.99 1.03 2.38-13.48-1.84-26.48-10.79-36.81l.18 1.77c0 .08.43.27.38.34-.2.34-.42.3-.76.34-.1.01-.08.36-.08.48l-.73.89.74 4.12.95.39.12-.71c.69.36 1.03.95 1.31 1.7.21.55.76 1.1.83 1.77l.42 4.05c-.02.12-.38.28-.55.31l.1 1.78-.23.92c.82.58 1.91 1.79.86 2.69l-.61-1.58-.32.15c-.32.15-.06-.97-.48-.91-.17.02-.44.25-.51.4l-.14.29c-.03.06-.19 0-.19-.06l-.07-.73c0-.08-.32.03-.33.11a7.45 7.45 0 0 1-.52 1.73c.22.21.67.51.95.66l.11-.52c.02-.09.43-.09.53-.03-.16.45-.42 1.24-.3 1.65.5.41.9.88.99 1.46.4.28.22.25.05.66l.5.23c-.19 1.6.03 3.92-1.58 4.87-.28.78-.86 1.09-1.56 1.36-.41.21-.78 1.26-.62 1.71.17.47.74.72 1.07 1.06 1.17 1.4 0 2.5-.71 3.67l-.17-.51-1.76-.98-.31 1.55-.79-2.36c-.03-.08-.34-.25-.37-.18-.14.32-.52.82-.84.83 0-.84-.15-1.27-.71-1.69-.93-.69-.6-1.26-1.25-1.09-.07.52-.55.88-1.1.89-.17.09-.24.66-.38.86-.5.74-1.86 2.76-2.5 3.34.55 2.05.1 2.17-.88 3.79l-1.45-2.39c-.4-.68-.86-1.31-1.03-2.11l-.33-1.6s-.13-.23-.14-.19c-.17.95-.53 1.35-1.4.61l.47-.48-.17-.1c-.78.3-1.39-.51-1.92-.88-1.35.47-2.88.94-4.3.69l-.35-.52c-.16-.24-.96.67-1.54.42l-1.24-.54c-.38-.54-.8-.91-1.36-1.06l-.53.75 1.23 1.23.54.85.12-.4.22-.21.11.96 1.34-.24.7-.96.26.11c.21 1.22 3.12.17 1.19 2.39-.15.31-.27.71-.51.94l-1.03.96c-.62.23-.93.42-1.34.91-.21.25-.8.52-1.14.7-.76.33-2.26 1.34-3.1 1.38-.5-1.33-.62-2.24-1.81-3.22-.33-.32-.83-.39-.86-.93-.03-.62-.51-.85-.87-1.25-.5-.56-1.53-1.6-1.75-2.3l-.3.86-.97-1.16c-.02.52.31.74.54 1.1l1.27 1.95c.22.33.28.57.71.81s.39 1.17.59 1.53c1.34.69.59 1.73 1.98 1.88.18.17 1.23.71 1.28.95l-.1.36.77.52 3.13-1.11.41.19c-.3 3.98-7.36 6.99-6.1 9.12-.12.55.1 1.08.49 1.45-.23 2 .4 2.08-1.58 3.06l-1.9 1.4c.41.48.67 1.51.08 1.8l-1.26.61c.06.6-.15 1.14-.63 1.5l-2.63 1.97c-.67.51-1.71.41-2.49.56-.93.18-1.92.6-2.33-.14-.06-.1.07-.28.18-.47-.37-.78-.92-1.36-1.52-1.99-.44-.46-.26-1.55-.57-2.02-.97-1.68-2.11-2.04-.61-3.97.21-.23.44-.51.52-.73.07-.19-.24-.52-.26-.72-.02-.75-.48-1.48-.83-2.1-.26-.24-1.55-1.24-1.67-1.58-.06-.11.24-.34.27-.47l.28-1.65-.86-.54-1.42.28-.57-.88c-1.19-.27-2.81.29-3.96.63-1.58-.5-2.87.4-3.37.12l-2.11-1.22c-.52-.3-.69-.58-1.03-1.1-1.09-1.42-1.79-1.05-1.97-2.69.68-.85.93-2.47.15-3.24l1.59-2.31c.85-1.2 1.94-.99 2.56-1.87-.09-1.02.52-1.93 1.56-2.15.17-.19.57-1.15.89-1.08l.39.28 1.58.07c.7-.32 1.55-.81 2.33-.86 1.11-.14 2.8-.12 3.89-.4.23-.05.74 1.13.68 1.2-.13.13-.46.48-.58.6-.1.27 1.24.59 1.38.69.72-.11 1.43 0 1.74.66l1.39.33c.2.05.56.18.74.12.2-.06.24-.53.23-.79 0-.25.4-.57.63-.61.3-.05.79.12 1.13.21l1.05.28 2.15.19c.41.04.95-.7 1.56-.34 1.31.65 1.52-1.23 1.81-2.04v-1.28l-.86.14c-.9 1.09-1.54-.57-2.28.55l-1.33-.55c-.29-.12-.4-.89-.52-1.16l-.31-.33c-.29-.32 1.2-.17 1.51-.58.15-.29.61-.23.9-.32.67-.29 1.33-.98 2.15-.63 1.46.64 3.01.13 3.11-.36.11-.55-.46-.76-.81-.93l-1.7-.8.03-.18.72-1.5c-.13.08-2.36 1.07-2.38 1.17l.66.49c.15.11-.59.53-.61.5l-.27-.32c-.15-.18-.31-.17-.1-.44l.07-.16c-.52-.07-.65-.12-.99-.31-.39-.08-.85.49-1.01 1.16-.04.19-.46-.03-.22.35-.29.85-.84 1.26.02 2.02l-.98.49c-.57-.3-1.31-.33-1.59.35l-.38-.17c-.09.02.13.93.13 1.03l.67.4c-.56-.04-.56-.08-.83-.24-.69.26-.65 0-1.09-.42-.44-.47-.83-.73-.57-1.49-.78-.49-2.39-.97-2.7-1.95-.49.03-.46.24-.66-.31l-.67.28c0 .62.38.86.69 1.18.64.84 1.55 1.17 2.47 1.57l-.62.3c-.12.06.14.43.24.54l-.52.77v-.79c-.07-.48-1.38-.97-1.72-1.22-.35-.2-.89-.54-1.18-.82-.22-.4-.48-.95-1.04-.88l-1.4.83c-.38-.07-1.23-.31-1.46 0l-.12.8c-.05.32-.92.25-1.46 1.05-.28.49-.45.35-.12.86-1.07 1.51-1.84.94-3.04 1.43l-.47-.55-1.14-.04c0-.43-.09-.78-.26-1.09 1.07-3.33-1.28-2.84 4.13-2.49.18-.51.34-1.31.26-1.81-.18-.2-.51-.67-.72-.78l-1.2-.62c.59-.38.95-.27 1.68-.17l-.08-.7.65.21c.11.04.96-.42 1.17-1.03l1.09-.51c.19-.31.31-.45.6-.65l.1-.57 1.61-.32c-.12-1.96-1.34-1.96.48-2.87l.11 1.01c-.81 1.07-.3 1.05.49 1.71.78-.64.72-.34 1.39.03l1.57-.82c.11-.05.43-.08.49.01l.22.33c.25-.18.85-.58 1.12-.69.12-.06-.63-1.72.34-1.9l.92.48v-1.1c-.3-.09-.53-.23-.56-.38-.02-.13.22-.45.35-.47l1.49-.2 1.16-.47-.9-.4c-.69.02-1.42.33-2.17.67l-1.02-.55-.25-1.12c-.04-.17-.17-.47-.07-.55l.44-.4c.78-.76 1.86-2.55-.12-2.19-1.06.42.12 1.36-1.27 2.14-.74.41-1.04 1.63-.67 2.27.14.15.69.43.69.66 0 .26-.64.35-.96.33l.83.24-.62.32-.17 1.89-.8.2c-.05.28-.3.57-.45.51-.36-.14-.18-.4-.57-1.2l-.98-2.03c-.25.6-1.01 1.3-1.46 1.31-.23 0-.74-.28-.73-.46.04-.39.21-1.17.33-1.55l-.5.44c-.13-.58-.45-.7.38-.71.38-.02.48.16.54-.29l-1.23.25.73-1.15c.64.09.36-1.11 1.78-.79l-.32-.5c.41-.43.9-.93 1.04-1.42.24-1.1 1.01-1.87 1.74-2.64.29-.87.3-1.03 1.24-1.3.37-.18.7-.34.96-.4l.61-.85.12.88.23-.51c.04-.09.25-.03.41 0l.29-.7.23.74c.36-.67.35-.35 1.01-.06l-.69.35c.62.25 2.29.56 2.97.67l2.12.87c.29.12.61.58.58.84-.16 1.19-2.14.78-3.76.13.14.57.94.64 1.23 1.01.57 1.38.05 1.11 1.57 1.65.09.03.48-.13.42-.21-.16-.25-.42-.34-.67-.44-.06-.03-.02-.31 0-.31l1.64.21-.65-.84.94-.95.75.34-.14-.98c-.07 0-.15 0-.16-.01l-.4-1.2c.26-.17.95.05.98.3l-.36.66.11.07c.16.22.9.46.98.18.12-.84.79-1.51 1.55-1.71l.28-.49c.33.74.35.71.81.28l1.02-.6c-.16-.17.1.11.19.21l.27.23c.07.06.42-.65.13-.9-.15-.13-.38-.42-.26-.48 1.02-.5 3.41.89 3.4.68-.06-.89-.93-.82-1.25-1.41l-.57-1.05-.1-1.62c.01-.22.53-.43.79-.36.22.05.45.43.5.71.09.52.34.56.6.99l1.04 1.74c.25.42.62.6.71 1.1.08.47-.03.88-.55 1.05l.02.37c.09.06.69 0 .86-.12.76-1.65-.46-2.04-.1-2.44.64-.72 1.18 1.37 1.8.8l-.35-.07c-.38-.91-.89-1.55-1.94-.85-.32-.39-.53-.78-.67-1.29-.22-.64-1.39-.67-.62-1.67l.58.84 1.13-.04c-.29-.23-.37-.22-.87-.28v-.2c.16-.19.14-.34.1-.64.26-.23 1.44.2 1.78.25.18.47.44 1.02.69 1.39l.37-.16c-.17-.49-.6-1-.88-1.39l-1.28-.66-.83-.83c.21-.17 1.6-.63 1.49-.98-.88-.73-.64-1.74.24-2.33l.04-.41s1.37-.36 1.27-.64l-.25-.69c-.12-.32-.35-.81-.36-1.09 0-.08.37-.19.45-.17.09.02.3.16.31.25l.05.36.56-.18c.12-.04.24.26.28.44l.22.14c.36-1.34 1.97-.29 2.47.39.28.58.15 2.86.24 3.52.19-.35.52-1.91.94-1.98l.52.18c.6-1.42.96.03 2-.6.08-.04.23-.29.17-.35l-.26-.22c-.08-.07-.22-.36-.16-.38l.95-.18c.31-.06.86.4 1.09.71.97 1.29 2.15 1.24 1.5.63l-.16-.3s.13-.15.17-.18l.49-.39c.55.05.36-.07.38-.4l-.92-1.19c.29-.1 1.18-.73 1.48-.63l.37.3 1.14.23.32-.76.23-.29c-25.64-21.19-66.22-21.09-91.74.25l1.33.08c0-.13.02.16.01.3l.07.9c.09 1.26.8 1.8.51 2.61-.09.24-.03.94.21.89l1.15-.28-.48.44 1.6-.17c-.6.92.08 1.21.8.9.08 1.97 1.72 1.77.16 2.36.05.79 1.55.56 1.35 1.12l-.3.84c.33-.13.48-.47.64-.87l.88-.3.6 1.05 1.39.64-.16-.5c-.03-.1.17-.24.27-.27s.3.32.25.42c-.22.35-.48 1.3.11.43l.91-.46.41-.85c-.05-.13-.38-.65-.24-.8l.73-.78.83-.69c.28.56-.13 1.82-.76 2.22.25.5.16.83-.16 1.5l.84-.63c.41.68-.61.76-.52 1.78.14-.02.46-.12.58-.23l1.09-.99.37-.74c.32.11.63.43.7.67.06.19-.04.65-.21.72l-.37.14c-.09.03.06.95-.38 1.2-.62.35-1.34.36-1.85-.18-.07.27-.11.49-.21.62-.13.18-.6.32-.69.18-.17-.26-.34-.47-.46-.58-.18.5.19.71.49.92-.33.71-1.33.8-2.08.66l.14.56c.03.13-.55.04-.66.11-1.27.78-1.78 1.05-2.43 2.46l.4.48-.31 1.22c1.16-.14 1.32 1.72 2.03 2.06l.85.4c-.4 1.39-.7 1.47-.23 2.92l.71.03.64-2.28c1.69-.68 1.35-.73 1.71-2.36l-.31-.5c-.13-.22.63 0 .93-.92.16-.35.36-1.54.7-1.71.44-.1.6.64 1.54.45l.39 1.22c.2.14.46.4.42.56-.05.22-.32.45-.47.39.14 0 .24.47.13.57l-.39.36.48.08.38.43c.5.09 1.28-.4 1.58-1.26.33.92.33 1.82.45 2.73.01.12-.3.39-.23.5.33.67.81 1.24 1.43 1.65l-1.47.37.08.23 1.17-.38.62.7c.17.19-.07.9-.29 1.02-.28.16-.88.2-1.21.24-.81.9-2.22.18-3.18-.06-.29-.08-1.94.63-2.5 1.31l1.74-.6c1.04-.18 1.52.84.03.7l.44.42c-.04.25-.07.77.09.97.38.47 1.48.72 1.16.79l-.45.1c-.49.11-1.17.31-1.6.53-.08.02-.29-.19-.26-.3.02-.08.16-.34.25-.35l1.03-.19-.36-.32c-.28-.14-1.29.29-1.6.33-.53.15-1.33.19-1.59.81-.07.17-.09.58-.25.62-.7.15-1.4-.14-1.55.36-.19.58-.19.57-.68.54l-.21.7c-.2-.36-.17-.55-.16-.9-.97 1.86.62 2.04-2.3 3.14-2.24.97-.16 2.43-1.33 4.02-.86-1.36-.21-2.65-.86-2.93-.45-.19-.58-.3-.98-.58-.34-.24-1.1-.37-1.52-.48l.2.42c.03.07-.37.14-.42.08-.29-.34-1.12-.87-1.53-.68-.28.13-.5.24-.67.27-.61.11-.52.71-.69 1.1-.33.74-.56 1.34-.46 2.22.07.62.18 1.75.89 1.97l1.2.37.65-1.09c.26-.09.89.09 1.34.28-.33.61-.97 1.87-1.22 2.51.57.22 2.08.35 2.23 1.05-.17 1.5-.73 2.04.62 3.23l1.2-.04-.64.36c-.09.05-.11.38-.15.52-.56-.57-1.66-1.41-2.05-2.1l-.55-1.24c-.32-.71-1.34-.89-1.72-1.39l-1.18-1.5-.67.06c-1.08-.92-2.14-2.06-2.85-3.19-.12-.19.11-.69.16-.89l-1.11-3.8c-.56-1.94-.07-2.71-.81-2.89l-.12 1.23c.06.04.09.05.1.08.19.93.45 2.08.26 2.97-.14-.88-.24-1.42-.61-2l.27-.9-.13-.1h0zm.22-23.86c-.95-.95.65-1.66-.17-1.54l-2.06 2.6c1.1.04 1.49-.41 2.23-1.06zm15.95 5.56c0-.21-.32-.21-.32 0s.32.21.32 0zm2.94 14.24h-.09.28-.19zm32.65 1.55l-.9.12c.41-.4.74-.53 1.18-.77-.36.04-.89-.07-.89-.28l.27-.8c.04-.13.54-.15.51-.28-.07-.24-.19-.75-.21-1h-.75c.11-.47.11-.74-.15-1.05-.39-.45-.11-1.36.25-1.6.09-.06.54-.03.66 0l-.35.63 1.12.07-.67 1.17c.77.07.6.2.87.78.48.43.81.88.8 1.5 1.52-.21.29.21.28 1.25l-2 .26h0zm-2.18-1c-.5.19-.77.38-1.32.1l.61-.94c-.15-.14-.29-.26-.35-.37s.19-.37.31-.38l.43-.04c.08 0-.05-.37.01-.42.14-.13.51-.22.75-.23.19 0 .55.33.49.51-.43 1.26.06 1.4-.93 1.77h0zm39.19-25.05s.28-.03.25 0c-.13.13-.21.36-.25 0zM279.01 27s.23-.03.22.02l-.05.22c-.01.05-.12-.14-.17-.24zm-45.09 26.3v.28-.28zm11.48 11.84c.04.08.29.33.4.28.26-.12.62-.61.75-.85l1.75-.25-.26 1.14c-.03.11.28.31.46.34l-.16-.79c.59-.42 1.24-.04 1.57.46.36.12 1.03.4 1.39.45.59.08.95.03 1.39.47l.76.76c.43.3.75.56 1.06 1.02l.74.67c1.9.19 2.74.98 3.48 2.69l-.8.74c.4.4.77.69 1.19.9l.78-.63c.54.21 1.19.47 1.55.81.28.26.35.33.69.41l1.89.46 1.62 1.05.83.22c.28.33.34.9.22 1.37-.09.35-.66.71-1.01 1l-1.01.85c.05 1.01 0 2.09-.59 2.98-.86 1.55-2.26.12-4 1.65l.16.81s-.72 1.12-1.41 1.63c-.26.19-.74.93-1.07.82l-1.89-.6c.21.23.99 1.02 1.13 1.29.07.1-.26.48-.39.47l-1.94-.07.19.92-1.29-.46c.38.59.78 1.3.34 1.68-.11.09-.51.33-.51.42l1.1.83-.87.93.26.73c-1.43-.08-2.25-.96-2.81-2.23-.19-.43-.12-.96-.22-1.39l-.29-1.32-.56-.26c-.13-.06-.13-.47-.17-.61l-.34-1.14c.24-.66.38-1.38.19-2.03-.2-.68-.2-1.28-.22-1.98-.15-1.12.23-3.06-.55-3.92l-2.57-2.35c-.51-.83-1.53-2.74-1.98-3.62-.5-.75-1.06-1.04-.02-1.79.09-.08-.34-.32-.38-.43-.27-.83.84-1.58 1.49-1.93.02-.43.05-1.21-.06-1.59l-.26-.89.05-.05-.18-.17s0-.26.05-.23l.3.22v.08h0zm27.53-32.23c0-.07-.86 1.25-1.79 1.58l-.43.16c-.12.04-.25-.39-.26-.46-.85.88-2.16.73-1.9 1.99.06.32-.63.67-.91.82-.04.7-.46 1.42-.94 1.96-.1.13-.53.01-.62-.12l-.47-.66c-.39-.08-.87-.32-.99-.75l-.49-1.85.78-.69-.66.1c-.13-1.28-.11-1.66.32-2.88.08-.24.67-.24.89-.16.04.02.2-.14.15-.16-.71-.27-.61-.14.13-.31l.77-1.18c-.52-.21-.92-.45-1.18-.87.44-.2.94.33 1.26.54-.07-.34-.15-1.3-.31-1.59-.12-.24-.35.11-.86.25-.07.02-.07-.27-.02-.33l.69-.84c.08-.8.21-2.59.12-3.37-.09-.25-.55-.77-.81-.82l-1.29-.23-.4.12c-.12.04-.41-.36-.3-.42l.44-.25-.61-.69c.74-.25 1.56.41 1.68.23l.36-.54-1.07-.14-.45-.83c.25-.73 2.07-.65 2.68-.8.31-.04.74-.56.93-.85l-.67-.43 1.21-.65c.42-.22.65-.36 1.2-.17l.39-.64c.07-.11.44-.42.5-.3l.31.69.03-.81 1.45-.22-.23.89c.4-.25.34-.36.68.12.04.03.3-.07.31-.16l.08-.47.07-.41c.01-.08.35.06.39.13l.65 1.15.64-.87-.04-.66 1.2.59c-.08-.36-.43-.54-.96-.75-.14-.06.18-.31.39-.35.18-.03.45.22.57.41.07.12.49.12.64.04.13-.07.12-.27.11-.5 1.1-.33 2.18-.23 3.14.4-.11.28-2.14.2-2.41.26.38.5.91-.02 1.2.01l1.37.14-.11.28 1.03.37c-1.12 1.24-2.68-.02-3.79 1.04l2.43-.14-.76.6.02.19 1.02-.49c.27-.36.22-.45.72-.14l-1.04 1.76 1.24-1.18h.85c.58-.71 1.15-.49 1.71.01l-1.2.99-1.69.22 1.45.17c-.15.4-.53.38-.91.24-.21-.08-.56.42-.52.56l1.03-.25c-.28.27-.5.39-.74.52-.16.86-.85 1.14-1.24 2.32l.65-.15-.28.38c-.01.21.56.35.73.44.09.04-.04.43-.14.41l-.43-.09-.98.15c-.13.17.17.6.52.62l.3 1.09-.69-.29.03 1.05-.59.16c-.1.03-.09.32 0 .37l.57.3c-.04.11-.49.36-.76.42-.2.05-.47-.24-.65-.47l-.96.46.25.21c.05.15-.26.23-.36.27-.04.01-.01.08.03.08h.22l.24.07c.07.02-.12.16-.26.25.97.13 1.14 1.02 1.23 1.87l-.9.03c.06-.86-.51-1.05-1.13-1.33-.06-.03-.21.11-.15.15.14.11.43.15.6.17.09.01.11.33.02.36-.83.28-1.19-.3-1.05.79-.56.84.9-.46 2.01.41-1.61 1.21-2.19 1.32-3.79 1.4l-.43-.48v.5zm-13.23.67l-.71-1.63c-.57.4-.62 1.17-.24 1.58.52.55.26 1.38-.31 1.75l-1.08-1.09.56 1.64c-.74-.22-1.13-.84-1.67-1.3-.1-.1.07-.38.1-.46l-.45-1.04c-.17-.39-1.67.32-1.47-.39.04-.14.37-.42.52-.41l1.4.15c.01-.46-.11-.63.41-.86 1.64-.52.51-2.59.24-3.7l-.08-.24s-.2-.03-.21.02l-.1.47s-.36-.18-.48-.23c-.68-.06-1.43-.36-1.89-.92l-.26-.31c-.06-.07 0-.43.1-.41l.55.1c.16.03-.19-.41-.45-.56.69-1.12 2.06-2.42 2.77-1.72-1.62.83-1.48 2.11-1.52 2.12l-.42.2c.61.18.76-.05.75-.65.53-.85 1.04-1.46 2.23-1.41-.13.74-.35 1.23-.81 1.73 1.91-.34 1.82-1 1.92 1.31l.43-.19c.09-.04.37.22.3.3l-.31.36.68.58s-.2.23-.25.27 0 .22.06.22l.32-.02c.06 0 .01.33-.05.34l-.5.1.45.36c-.33.04-.79.45-.64.62l.84 1.01c.1.53.26.78.8 1.15l-1.54 1.16h0zm3.77-17.44s.07-.15.09-.15c-.08 0-1.04-.05-1.17-.06l.61-.43c.13-.09-.16-.48-.28-.54.59-.19 1.22-.22 1.62 0l.52-.52.42.83.16-.69c.03-.12.39-.03.5-.05.25-.15.68-.33.9-.34l.21.84.08-.47c.02-.1.2-.38.28-.32l.44.33c.56-.31 1.09.08 1.58.32l-.74.38 1.15-.16.4.98c-.76.49-1.55.55-2.41.56l-.86.45 1.18.05-2.49 1.18c-.16.08-.42.52-.54.44l-.45-.34c-.19.48-.13.52-.71.32-.21-.08-.58.02-.67.23-.06.16.1.36.36.62l-1.09.8-.51-.05-.4.53c-.22.16-.74-.08-1-.13-.06-.02-.14.25-.07.11.36.2.41.3.51.59.07.2-.47.49-.66.4-.57-.29-1.01-.54-1.63-.45l-.83-.51c.3-.32.65-.43 1.15-.47l.35-.85.39.3c-.1.66-.09.57.38.53-.25-.8-.04-.58.56-1.04l-.75.05c.24-.7 1.05-1 1.49-.23l.54-.15-.47-.26.32-.87c-.01-.23.05-.81.48-.82.32 0 .32.76.35 1.21l.33-1.03c.31 0 .85.02 1.12-.04l.96-.23-.4-.19c-.08-.04-.08-.27-.07-.24-.95.53-2.2.4-2.35-.26-.02-.08.46-.22.47-.14l.04.36c.06-.04.59-.32.62-.37h0zm.08.15h.19-.19zm-13.39 9.58l-.53-.08c-.11-.02-.08.36-.05.5.04.2-.6.28-.72.11s-.22-.45-.32-.81c-.62.24-1.43.3-2.16-.02l.29-.71-.39-.46c-.09-.11.18-.6.32-.59.29.03.82.21 1.17.34.04.03.12-.32.03-.37l-.5-.26a1 1 0 0 1-.39-.4c-.05-.13.39-.32.53-.3l.35.06c.06 0 0-.15-.05-.19l-.29-.27c-.17-.16.88-1.2 2.16-1.08l-.55.67.37-.12c.09-.03.34 0 .32.08l-.17.49.73-.06-.63 1.16c.65-.27.77-.86 1.21-1.31.05-.06.26.03.29.1a.98.98 0 0 1-.01.45l-.73 1.21c-.26.43-.4.7-.16 1.22.08.17.09.66-.08.64h0zm8.95-7.28c.28-.66.15-.75.93-.77-.18-.37-.33-.8-.24-1.11l.6-.04c-.03-.06-.13-.52 0-.53l.63-.03.18-.42.96-.36c-.5.9-.52 1.85-.54 2.82-.55.23-1.96.8-2.54.88-.04-.03-.03-.37.02-.45h0zm.19 4.57c-.51.39-.5.65-1.05.06-.4.03-1.07-.06-1.44-.23l-.04-.34c-1.59.01-.36-.53.19-1.91-.82-.32-.41-.47-.22-1 .05-.11.54.14.51.25l-.13.5.53.09c.1.02.1.38.01.43l-.42.19.03.67.67.4c.35-.12 1.08-.18 1.45-.07.13.04.42.46.33.55l-.44.42h0zm-9.9-2.06c-1.8.06-2.37 1.31-3.16.96l.18-.96 1.87-1.39c.18-.13.48-.5.64-.41s.39.38.49.55l.31.57c.08.14-.17.64-.32.68h0zm3.41-.45c-.91-.43-1.38-.02-1.99-.21-.11-.03.1-.38.21-.38l.91.05c-.43-.73-2.06-.56-.82-1 .32-.28.62-.47 1.16-.78.21.31.16.86 0 1.25-.05.13.39.33.5.23l.81-1.04c-.11.77-.39.6.08 1.25l-.85.61h0zm7.2 25.35c.09.14-.17.91-.46.98l-2.14-.42 1.94-2.28c.13.49-.18.64-.61.98l1.27.74zm-8.14-21.21c-.01-.32-.18-1.34.02-1.58l.36.29c.28.03.58-.89.72-1.08l.85.44-.7.54c.22.86-.54 1.37-1.26 1.39h0zm.97 8.32l-.4-.66-.94.65-.17-.74 1.05-1.46.1.41c.31.42.51.87.73 1.5.23.21-.21.54-.36.29h0zm1.73-8.91c-.09.07-.5-.17-.45-.16-.25.25-.49.47-.81.67.2-.85.74-1.57 1.47-1.95.21-.09.65.28.9.59l-1.1.85h0zm-7.18 35.85c-1.12.35-1.22-.59-1.87-1.07l-1.62-1.22c.8-.13 1.17.37 1.63.76l1.86 1.54h0zm9.42-41.46c.11-.64.34-.62-.43-1.01l.53-.26.15-.69c.25-.21.63.2.63.53 0 .52-.36 1.18-.88 1.43h0zm-2.58 2.51l.64-.35-.24-.29c-.06-.08.12-.44.19-.37l.33.31.3-.71.61.42-1.13 1.16c-.35.27-.54.23-.68-.18h0zm-4.46 40.38c-.82-.02-1.5.38-1.66-.83.76-.07 1.3.07 1.66.83zm9.35-35.93l-1.11-.13.11-.79c.07-.16.53-.04.72.05.25.11.39.62.27.87h0zm-24.2 10.55l-.14 1.63-.27-1.75.41.12h0zm21.84 11.49l-.5.06c-.09.01-.09-.24-.06-.33.03-.08.23-.23.28-.16l.27.43h0zm-8.46-21.46l-.53.24c-.09.04-.23-.11-.35-.26l.88.02h0zm-4.43 31.68h-.58.58zm-.37-35.51a1.62 1.62 0 0 1 .22.01c-.1.02-.23.02-.33 0h.11z"/><path d="M233.38 25.98c-.74.65-1.13 1.1-2.23 1.06l2.06-2.6c.82-.12-.78.59.17 1.54zm15.95 5.56c0 .21-.32.21-.32 0s.32-.21.32 0zm2.94 14.24h.19-.28.09zM.05 84.63L0 81.16c10.18.6 15.38-10.43 20.87-17.18 3.68-5.23 17.68-23.12 20.38-28.54 1.75-3.15-5.32-3.73-8.53-3.72V28.2c11.33.66 23.96 1.14 35.15-.46 2.53 5.53 5.22 10.75 8.4 15.89 2.13-11.1 18.41-13.04 27.7-14.49 11.28-1.55 24.24-.84 35.63-.2 4.39.08 10.28.62 14.63-.49-2.83 4.21-2.58 9.26-2.68 14.1 0 1.01.12 1.87.32 2.94h-7.37l-.08-4.52c-4.13-9.74-27.68-10.41-36.27-6.57-1.69.81-2.92 2.28-3.25 3.87-1.35 9.71 14.58 10.4 21.21 12.05 9.7 2.18 24.65 2.78 32.29 9.87 3.39-4.65 15.33-20.56 17.92-25.31 1.83-3.65-6.19-3.65-8.5-3.85v-3.44c11.7.63 23.46 1.17 35.15-.47 6.3 14.56 17.94 30.51 26.39 43.97 3.24 4.72 6.62 10.13 13.16 9.41l-.02 3.04c-10.41.16-25.36-.4-35.64.72-2.67-5.48-8.52-16.23-11.71-21.41-5.51-.24-21.91-.21-27.4 0l-1.29 2.41c-.94 2.73-3.83 9.08-3.9 11.94-.25 4.05 5.45 3.06 8.23 3.3l.02 3.53a370.37 370.37 0 0 0-35.58 0c-.22-.6-.18-.38-.72-.35-20.65 3.46-42.01-.98-62.76 1.2-2.56-6.08-8.39-15.62-11.71-21.42-5.54-.22-21.88-.2-27.4 0-2.39 4.44-4.3 9.26-5.18 14.22-.41 4.18 5.47 3.25 8.26 3.48v3.49c-8.91-.44-26.79-.44-35.68 0h0zm192.64-26.01l-11.4-19.04-.31-.25c-.05-.04-.21.17-.26.25l-10.88 19.06c1.45.34 20.79-.02 22.85-.01h0zm-143.58.87l8.49-.27-11.69-19.47-11.15 19.49c2.39.32 11.78.25 14.35.26h0zm82.44 17.32c5.34-7.09-5.79-10.62-11.07-11.76-11.86-2.89-25.89-4.25-36.83-9.7C87.37 60.8 95.11 74 99.67 78.57c10.09 2.72 22.9 4.8 31.88-1.75h0z"/></svg>
