<svg xmlns="http://www.w3.org/2000/svg" viewBox="0 0 839.27 320" fill="currentColor"><path d="M0 217.11h577.4v5.28H0zm634.72 57.63c1.53 4-10.75 30.43-11.63 34.84-3.16 1.68-6.82.8-10.71.17-.01-3.07.21-6.06-1.07-9.01-.78-3.29.63-6.72-1.19-10.06-2.21 6.81-4.56 12.63-7.85 18.9-3.04 1.36-7.19 1.32-10.65-.1l-.4-30.19c-3.97-5.77 5.47-4.61 8.43-4.62 4.17 5.11-.55 10.88 1.9 16.4l6.8-16.12c3.31-.51 6.3-.54 9.71.25.61 5.55 1.03 10.32 1.88 16.24l5.48-16.25c2.96-.9 6.11-.54 9.3-.46zm-240.23 36.11l2-1.64c2.95 1.7 6.57 1.32 9.15 3.65l3.07-.04c.83-.58 1.26-1.44 1.41-2.58 1.26-.97 1.13-2.6.71-3.89l-4.77 3.21c-20.21.29-6.67-36.75 8.25-23.14.54-.58.99-1.19 1.54-2.05l7.84-.02c.31 6.45-1.46 12.92-2.79 19.17.69 6.86-2.85 12.78-8.69 16.18-6.62.32-20.42 2.1-17.74-8.85zm17.75-15.19c1.15-3.59-4.84-4.67-5.2-1.19-1.6 1.63-1.41 3.48-1.37 5.97 3.23 2.6 8.07-.77 6.57-4.78zm355.07-11.22c1.9 2.69-10.5 22.15-11.21 25.1-3.12 1.6-6.45 1.32-9.27-.29-.91-3.2.41-6.27-1.08-9.21l.03-1.53-1.55-.44c-.17.74-4.48 10.69-5.07 11.71-3.12 1.33-6.45.75-9.04-.48-.4-8.44-4.27-16.41-3.75-24.24 2-1.27 7.03-.88 9.23-.09l.49 13.15c3.36-4.55 4.17-9.29 6.72-13.74l7.79-.08c2.9 3.89 1.07 8.95 2.5 13.48 3.93-3.56 2.81-9.85 6.64-13.45l7.55.11zM212.15 310.3c-3.1.27-6.38.33-9.59-.23.54-9.52 2.3-19.04 4.17-28.33-.26-2.66.12-5.2 2.17-7.05l17.82-.02c11.11 2.73 8.05 18.09-.37 22.11-3.84 1.08-7.85 1.16-11.99 1.62-.2 4.28-.17 8.06-2.2 11.9zm9.81-26.61l-4.83-.49c-.17 2.25-.42 3.65-1.16 5.44 3.07 2.89 9.09-1.35 5.99-4.95zm238.03 25.64c-2.74 2.26-8.5 1.43-11.5.22-2.68-9.78-4.45-19.97-5.41-30.3-1.47-1.17-1.71-2.69-.69-4.43 3.48-.14 7.16-.65 10.28.43 2.11 7.45 1.54 14.57 3.38 22.56l10.19-22.9c3.55-.32 6.99-.7 10.89.33l-17.14 34.09zm336.77.39l-.04-1.28-1.62.11c-4.66 4.47-9.57 3.03-13.28-2.18-1.98-9.42.89-22.46 12.26-23.21 1.11.7 2.27 1.19 3.65 1.66l.52 1.2h1.09c.24-3.79 1.17-7.05 1.62-10.94 2.99-.65 6.21-.6 9.36-.06 1.06 2.12.36 4.11-.5 6.05-.13 3.15-.19 6.02-1.46 8.81-.23 6.7-2.12 13.45-3.33 19.97-2.83 1.07-5.75.78-8.25-.12zm.38-10.97c2.98-10.72-9.41-5.34-5.85 2.86 2.77 2.09 5.3.16 5.85-2.86zm-458.52 11.16c.17-2.37-1.97-1.62-2.66-.6-3.99 3.03-7.76 2.38-11.13-1.44-6.59-9.16 4.05-32.34 15.92-21.54l1.66-6.65c-.3-1.78-.27-3.33.83-4.81 3.01-.32 6.42-.53 9.31.18-.16 9.48-3.11 18.42-4.47 27.71.34 2.67-.14 5.04-1.5 7.36-2.5.66-5.38.52-7.96-.21zm-.79-8.73c1.45-1.41 2.53-3.16 1.67-5.07 1.47-3.56-4.23-5.01-5.26-1.58-1.79.52-2.36 7.42-.41 7.72 1.54.56 3.12.53 4-1.07zm362.8 9.33c-3.25-2.3-5.07-4.39-4.57-8.16-.93-1.38-.87-2.9-.03-4.21-.36-9.01 9.45-19.38 17.89-11.97.43-4.22.4-7.54 2.03-11.17 2.58-.45 5.34-.38 8.13-.34 1.56 1.47 1.63 3.45.41 5.07-.53 10.22-3.52 18.96-4.44 29.41-2.86 1.79-7.34 2.07-10.04-.79-3.01 2.47-6.56 4.28-9.38 2.16zm10.95-12.4c1.67-2.68-.32-7.08-3.79-5.14-1.8 1.61-3.61 5.93-1.97 8.35.18 1.52 2.26.94 3.92.96.94-1.16 2.15-2.26 1.83-4.17zm107.97 2.24c-.62 1.89 1.76 2.65 2.32 3.38 2.21.02 3.7.17 4.93-1.48h8.56c1.14 11.61-28.33 14.08-25.17-4.79 1.22-13.79 23.67-20.47 27.59-5.59.82.59.3 2.57.77 4.23l.21-5.33c.56 2.78.72 5.4.07 7.91l-.21-1.32-.36-.26-.69 1-.14 1.91c-.54 1.05-16.68.26-17.91.34zm8.52-5.85c1.15-5.13-7.77-3.55-6.77.23 2.34-.44 4.3-.46 6.77-.23zm-343.23 15.03c-4.87 3.18-11.03 2-13.76-2.63-1.26-13.02 9.94-10.9 18.77-14.27-1.56-3.37-5.43-1.87-7.08.21-2.79 1.02-6.25.75-9.19-.54 2.11-9.75 15.61-10.66 22.91-6.9 5.36 7.45-.65 16.66 0 24.94-2.73.19-5.3.2-7.94-.13-.69-2.82-2.56-2.01-3.71-.68zm-.07-5.6c2.1-.86 4.18-2.78 2.87-5.24l-6.67 2.8c-1.1 2.51 2 3.67 3.8 2.45zm76.1-1.53c2.46-.07 13-1.3 8.15 3.53-6.43 7.81-23.34 7.75-24.16-4.28-3.53-21.11 33.37-25.97 26.76-1.52-5.95 1.13-11.5-.74-17.45.39-.2 3.47 5.05 4.3 6.69 1.88zm1.64-7.89c.9-3.5-3.64-4.38-5.44-2.28-1.14.37-2.09.99-1.61 2.45l7.05-.18zm-18.76-9.48c-1.14 5.38-2.65 19.49-4.04 24.51-2.12 1.3-5.39 1.2-8.18.48-.24-2.35-2-2.12-3.1-.76-4.31 3.39-9.63 2.4-12.42-2.88-.58-7.11 1.56-14.86 3.07-22.05l9.52.37-1.94 12.76c-1.63 1.88-.18 5.4 2.58 4.7 2.84-2.04 3.44-6.09 3.19-9.6l1.7-7.79c2.89-.27 5.97-.94 9.61.26zM378.16 295.5l-2.25 14.04c-3.16 1.21-6.45 1.38-9.68.29 1.49-8.41 1.63-16.89 4.27-25.32 2.5-.19 5.15-.15 7.51 0 .72.97 1.27 1.53 2.02 2 5.53-5.2 12.64-4 13.97 4.22-.72 6.27-2.28 12.19-2.63 18.64-3.02 1.43-6.72 1.56-9.85.33l1.98-15.38c-1.41-2.98-3.76-1.16-5.33 1.17zm264.11 15.85c-16.49-1.34-12.99-23-.41-26.97 23.3-6.93 20.71 27.25.41 26.97zm6.4-14.82c.11-1.9.5-3.83-1.44-4.03-6.74-3.33-10.42 13.62-.84 9.85 1.43-1.58 2.83-3.48 2.28-5.82zm-367.57 2.85c-4.75 16.14-30.17 15.8-26.62-3.44 3.41-16.9 31.26-16.99 26.62 3.44zm-10.32 1.44c.89-2.35 1.17-5.31.34-7.7-9.41-5.46-9.66 16.93-.34 7.7zm37.33-11.48l-12.2 21.12-7.49-.3c-1.76-3-1.54-5.99-2.32-8.71-1.07-.97-.68-2.74-.73-4.16-1.19-2.35-1.74-4.66-1.75-7.42-1.29-1.65-1.92-4.01-.48-5.56h8.89c.96 4.88 2.23 9.38 1.49 14.31l.84-.78.44.62c1.79-4.94 3.33-9.48 6.06-13.99 2.77-.23 5.46-.19 8.32.04.71 1.85.08 3.24-1.08 4.82zm383.9 12.48c-.95 2.42-1.42 4.89-1.29 7.5-3.05 1.64-6.83 1.56-9.94.44-.27-2.72-.02-4.95 1.35-7.02.91-9.47 1.95-18.78 4.57-27.95l8-.11c1.16 1.25 1.14 2.67.9 4.24-1.1 2.61 0 5.5-1.65 7.99l-.74 8.38c-1.2 1.94-1.25 4.21-1.21 6.53zm-181.74 7.84c-3.01.96-6.54 1.31-9.75-.15 1.7-9.14 3.66-25.39 5.55-34.54 2.73-.46 5.42-.39 8.32-.21 1.68 1.13 1.93 3.03.8 4.75l-4.92 30.16zm-296.54-60.2c-2.81 3.78-6.76 4.89-11.14 4.25-5.4.66-10.54-1.46-12.52-6.39-.16-2.16.35-2.73 2.07-2.46 1.95-1.41 2.78.42 3.66 2.04 3.67 3.44 10.52 3.91 14.32.21-2.46-4.49-8.44-2.22-12.29-4.45-2.97.35-5.91-2.25-6.45-4.83-.61-11.07 21.48-10.74 22.78-.4-.83 1.5-2.47.62-4.04.75-1.23.02-1.64-1.23-2.21-2.61-3.52-2.21-8.49-2.08-11.75.44-.12 1.47 1.35 1.58 2.34 2.35 6.15.56 19.39 2.01 15.23 11.1zm445.94 60.25c1.45-8.38 1.81-16.76 4.23-24.91 3.16-.77 7.01-1.04 9.61 1.01 1.48-1.52 3.1-1.99 4.62-2.43 1.46 1.18 3.46.79 4.17 2.83l-4.21 7.01c-1.64-.23-2.91-.86-4.08.31-1.31.34-1.25 1.92-2.4 3.12l-2.11 12.74c-2.89 1.3-6.59 1.65-9.82.31zm-426.22.4c1.63-8.51 1.14-18.04 4.74-25.7 2.64-.04 5.13-.16 7.4.12.49.86.78 1.14 1.44 1.49 1.5-.9 3.99-3.3 5.55-2.29 6.69 1.37.98 6.09-.83 9.58-6.23-2.41-7.24 5.22-7.15 9.61-1.3 1.94-1.24 4.31-1.22 6.79-3.14.65-6.29 1.19-9.94.4zM49.03 251.49c-.66 1.32-.97 2.53-2.29 2.45-1.13.09-1.97-.56-2.87-1.64.09-5.68 1.67-17.15-7.44-10.52l-.07 10.45c-1.51.77-1.93 2.3-3.16 1.72-1.16-.31-2.09-1.34-2.38-2.54.66-3.09-2.64-20.73 5.24-13.62 6.04-5.71 9.31 1.88 13.93-.93 4-2.3 9.56-1.26 11.57 3.01l.17 12.34c-1.05 1.1-2.05 1.83-3.46 1.64-.9-.38-1.81-1.72-1.83-2.96.23-3.17.34-6.2.25-9.29-1.95-2.79-5.74-2.19-7.66.18v9.72zm351.49-4.45l-11.61-.29-3.39 5.78c-1.33.22-1.62 1.75-3.06 1.15-.87.07-1.47.17-2.12-1.36l9.55-17.78c.96-3.23 3.36-5.39 6.79-4.16l12.28 21.29c-.37 1.76-.94 2.39-2.27 2.15-1.34.15-2.18-.47-3.18-1.52l-2.99-5.25zm-1.77-3.88l-4.33-7.98-4.04 8.02 8.37-.04zm-378.34 3.52c-4.04.59-7.69.47-11.58.05-1.65 3.29-3.22 8.62-7.54 6.54-.26-1.31-.25-2.75.88-3.55 15.16-31.92 13.03-20.6 27.2 2.52-.86 1.54-2.16 1.64-3.66 1.58-1.26.09-1.91-1.21-2.73-2.47-.72-1.63-1.51-3.28-2.57-4.66zm-1.72-3.67l-4.04-8.2-3.77 8.3c3.06.17 4.89.25 7.82-.1zm341.6 67.4c-2.96.09-5.88.33-8.31-.71 1.01-8.4 2.19-16.85 3.84-25.1l9.31-.21c.33 7.04-2.02 13.4-2.95 20.15.24 2.24-.03 4.44-1.89 5.87zm-70.54-64.1c1.28.83 1.77 2.02 1.13 3.7-2.5 2.89-6.2 4.4-10.23 3.72-4.31.56-8.13-2.33-9.61-6.11-3.68-13.47 19.07-16.46 21.02-3.6-.57.9-1.17 1.49-2.31 2.3zm-3.54-3.83c-1.35-3.76-7.7-4.08-9.81-.39 2.95.7 6.57.37 9.81.39zm1.33 3.74c-4.56.23-8.03.4-12.1-.24 1.11 5.56 10.05 4.98 12.1.24zM85.6 248.1c-1.35 4-6.15 6.26-10.36 5.71-5.8.78-10.87-3.84-11.04-9.6 2.07-9.85 16.16-11.67 21.16-2.78l.06 4.32c-.98.09-2.06.1-1.11.89-.37.57.13.72 1.29 1.46zm-5.63-5.33c.92-4.24-10.46-3.73-9.26-.34l9.26.34zm.63 4.87l1.24-.47-.57-1.2c-.06.09-11.22.31-11.68.33 1.4 5.01 8.16 4.52 11.01 1.34zm695.07 62.1c-3.42 1.5-6.78.97-9.75-.2 2.6-8.37 1.7-16.86 4.8-25.17l8.82.1c-.13 8.86-2.68 16.91-3.87 25.26zm-636.99-55.98c-2.14.33-4.33-.7-5.6-2.18-4.98-8.71 8-8.34 13.9-9.66-2.43-3.99-8.33-2.19-10.83.42l-3.29.34c-.12-.6-.17-1.89-.16-3.21 4.45-4.74 13.31-5.27 18.34-.92l.19 10.29c1.29 1.37 1.76 3.97.48 5.04-2.55.23-3.64-1.61-5.9-1.8-2.1 1.7-4.53 2.15-7.13 1.68zm-1.57-4.61c2.72 2.41 10.95.62 9.26-3.55-2.73 1.98-8.77-.37-9.26 3.55zm181.71 51.93c.32 3.24-.68 6.1-1.51 8.85-3.22.89-6.05.53-9.33-.2 1.32-4.46 2.9-20.18 4.07-25.06l9.49.05c-.07 5.77-.86 10.96-2.72 16.36zm96.95-45.06c-.12 1.31-.33 2.49-.76 3.4-1.3.19-2.38.21-3.66.04-.47-1-.77-2.33-.51-3.57l.34-19.53c2.3-.88 3.41.76 5.32.51 6.92-3.92 15.62 1.72 14.2 9.88-1.57 6.28-10.13 9.34-15.03 5.24-.49 1.54-.29 2.54.11 4.04zm10.31-11.17c.1-6.99-10.88-6.99-10.78 0-.1 6.99 10.88 6.99 10.78 0zm370.24 21.43c-13.62 3.03-21.22-15.78-10.38-24.25 17.42-11.25 30.83 18.3 10.38 24.25zm-6.54-4.03c16.37 4.7 18.86-19.18 2.79-18.72-9.9-.24-11.82 15.67-2.79 18.72zm-319.21-16.09c3.35-2.79 8.21-3.77 12.62-3.47.79-.02 1.12-.24 1.74-.97-.06-.35-.53-.95-1.1-1.64-2.43-.79-5.05-.57-7.61.34-1.05 2.01-2.81 1.98-5.34 2.11-.06-1.13.13-2.34.6-3.73 4.96-3.96 12.9-4.48 17.7-.16.97 3.88.08 7.58.63 11.28.85.77.77 1.84.62 3.11.06.77-1.74.39-3.04.49-1.64-1.59-4.28-1.89-5.78.18l-4.89.14c-2.01 0-3.86-.64-5.2-1.97-.84-1.93-2.43-3.25-.95-5.72zm5.69 3.75c3.31.99 7.93.03 9.11-3.55-1.76-1.58-3.45.45-5.33.69l.51-.56c-1.93.05-7.94.45-4.29 3.41zm66.56 0c-1.91 2.98-5.16 4.15-8.58 3.85-3.1.3-6.14-.21-8.33-2.52-12.79-14.18 18.34-23 18.26-6.07l-2.91 1.28 2.67 1.04c.22 1.21.07 2.02-1.11 2.43zm-4.05-7.34c-.95-4.32-8.89-4.34-9.92-.07 3.34.17 6.8.23 9.92.07zm1.48 3.37l-12.15.16c.28 3.25 3.8 3.75 6.26 4.12 2.17-.86 4.57-1.59 5.89-4.28zm-101.03 11.47c-.59 1.63-1.95 2.29-3.39 2.23-1.31-.23-2.03-1.99-1.62-3.51.58-5.76.05-11.45-.08-17.16.54-2.97 2.29-4.16 4.28-1.33 19.99-10.03 20.57 23.23.17 14.77l.64 5zm10.01-12.54c.1-7.02-10.92-7.02-10.81 0-.1 7.02 10.92 7.02 10.81 0zm112.55 6.77c-3.07-3.35-1.04-6.22 2.7-4.25 2.12 3.12 5.32 2.69 8.61 2.25.27-.68.4-1.13.51-1.75l-1.79-.88c-4.98.58-15.47-3.56-9.45-9.2 4.08-3.35 16.02-3.1 15.17 3.64-2.62 3.27-8.13-5.15-12.17-.34 26.35 4.07 8.67 18.26-3.56 10.52zm-202.68-8.66c.47 3.12-.64 6.27-2.85 7.93-2.3 2.33-5.09 3.35-8.38 2.84-5.19.55-9.64-3.09-9.96-8.23-1.33-11.6 18.58-13.34 21.19-2.53zm-5.33-.97c-3.87-4.65-13.42-1.79-10.9 4.89 3.47 6.76 13.62 2.6 10.9-4.89zm157.74 11.72c-4.37.69-8.69-1.97-9.76-5.96 5.14-3.67 4.93 4.44 13.86 1.94l.15-2.1c-4.66-1.67-14.58-.76-12.39-8.61 4.39-4.35 12-4.46 16.12-.05 0 1.38 1.19 2.56-.44 3.04-.12.31-1.57.09-2.64-.03-2.12-2.38-5.33-3-8.31-2.17-.41.62-.61 1.28-.44 2.19 4.44.04 8.43 1.35 12.44 3.04l1.07 3.27c-1.46 3.71-5.42 6.19-9.66 5.44zm-273.39-5.46c-1.96 3.86-6.53 6.17-10.86 5.49-3.75.33-6.9-1.53-8.72-4.39-7.9-16.51 24.33-18.9 19.57-1.1zm-9.4 1.89c6.78-.63 6.7-9.93-.04-10.48-8.68-1.25-8.45 11.95.04 10.48zm-67.81-8.18c-.92 3.64 1.95 9.05-1.11 11.24-1.18.83-2.73.8-3.47-.5l.17-16.37c1.6-.89 2.66.34 4.16 1.2 4.72-2.89 11.32-2.35 14.25 2.55l.06 11.97c-.42 1.4-2.04 1.74-3.4 1.71-1.14-.29-2-1.8-1.95-3.21.4-3.14.7-6.34-.21-9.34-2.55-2.28-6.15-1.6-8.51.75zm94.34.14c-4.89-6.76-13.87 1.87-7.59 7 2.53 2.39 6.09 1.01 7.89-1.88 2.71-2.94 7.19-.03 3.54 3.23-1.94 2.68-5.1 3.76-8.4 3.29-4.55.52-8.75-2.31-9.85-6.74-3.9-11.3 18.26-16.3 19.24-4.67-1.67.45-3.3.56-4.84-.24zm60.23 14.46c-2.56 2.46-4.98 3.55-8.18 2.9-.71-.69-1.37-1.51-1.37-2.14.31-1.18.74-2.1 1.94-2.07 1.27.42 2.66.3 3.68-.5.71-1.17 1.31-2.11.47-3.59l-7.17-13.27c.64-2.74 3.06-2.11 5.07-.65l5.16 11.23c2.43-3.88 3.59-7.89 5.67-11.64 1.09-.46 2.08-.82 2.92-1.05 1.13.62 1.04 1.79 1.01 3.14l-9.21 17.63zm-199.4-14.11c-2.06 6.85 6.02 10.95 9.88 4.86.66-.84 1.79-1.33 2.81-1.44 1.62-.22 1.03 1.33 1.73 2.73-1.34 3.45-5.28 5.53-9.31 5.17-4.24.53-8.45-2.15-9.76-6.34-3.11-10.61 12.37-15.65 18.48-8.05.14 1.29.15 2.21 0 3.43l-3.35.04c-2.18-3.97-8.42-4.35-10.49-.41zm251.75-2.96l-.02 13.12c-1.1 1.19-3.16 1.59-4.5.26l.11-13.01-3-.08c-1.08-1.08-1.17-2.72-.34-3.26 1.24.02 2.13-.1 3.28-.36l-.03-3.28c2.06-3.06 5.61-3.14 9.37-2.84 1.25.01 1.07 1.76.68 3.02-.77 1.33-3.91.81-5.44 1.24l-.05 2.33 3.89-.03.21 2.91c-1.12.28-2.6.26-4.18-.01zm-66.99 9.71c1.6.27 2.42.52 3.33.94.66 1.01.68 2.29.4 3.26-9.82 3.02-9.56-6.48-8.73-13.19l-2.64-.55-.03-2.65 2.65-1.14c.18-1.32.43-2.99.66-3.79 1.57-.98 3.37-.87 4.51-.17-2.04 6.98 2.84 2.3 2.63 6.44.82-2.18.44.89.07.9-.82 1.25-1.74.64-3.04.38-.06 3.09-.17 6.5.2 9.56zm-206.97-5.27l.06 8.05c-1.14 1.06-1.6 2.08-2.76 1.93-1.41.3-1.56-1.03-2.56-2.13v-13.5c.83-1.08 1.24-1.65 2.07-2.43.83.23 1.62.82 2.83 1.81 2.36-2.11 5.26-2.48 7.73-.57 2.09 6.69-7.93.47-7.37 6.85zm367.83 8.97c-1.53 1.39-3.25.89-4.62-.61l.09-15.39c1.78-1.5 3.03-.42 4.66.66 2.9-2.43 6.01-2.65 8.37.33-.77 1.38-1.84 2.72-2.92 3.26-1.38-.49-2.09-.56-3.73-.59l-1.74 2.76-.12 9.58zm90.76-10.46l-.02 9.25c-.34 1.84-1.76 1.94-3.4 1.84-3.72-3.13-.14-10.66-1.61-14.97.59-1.2.83-2 1.76-2.67.7.05 1.65.83 2.4 1.49 1.88.38 2.57-1.87 4.27-1.55 1.34-.03 2.48.17 3.49.86 1.45 1.83-.62 5.35-3.22 3.97-1.5-.13-2.87.4-3.66 1.77zm-285.05 9.95c-.26 1.49-1.43 1.13-2.5 1.42-.99.14-1.76-.35-2.42-1.36-.11-5.2-.13-10.24.34-15.55 1.45-.76 2.87-.58 4.5.11l.08 15.38zm-159.68-.15c-.69 1.5-1.92 1.81-3.13 1.52-1.55-.46-2.05-1.98-1.91-3.51.31-3.82.46-7.38-.35-11.07.83-2.95 3.6-3.5 5.4-1.63v14.69zm391.64-2.11c.05 1.41-.28 2.29-.78 3.31l-3.45.24c-.73-1.12-.82-2.39-.85-3.72.26-3.67.56-7.14-.11-10.59l1.05-2.79c2.53-.33 4.26.41 3.81 3.12l.33 10.43zm280.76 32.36c-2.53-.16-13.56 1.46-8.88-4.1l.51-3.33c7.62-.73 11.75-1.96 8.37 7.43zm-414.37-.07l-9 .15c-.88-2.68-.81-6.01 1.77-7.91h7.77c.77 2.58.18 5.14-.55 7.76zm-44.46.09l-8.33-.29c-.14-2.57.02-4.96.62-7.46l9.27-.07c.85 2.77.43 5.7-1.56 7.83zM104.79 234.8c-3.45.19-2.7-4.88.31-4.93 1.6.12 3.12.91 2.77 2.28.3 2.21-.98 2.69-3.08 2.65zm159.18-4.66c1.53-.34 3.21-.23 3.36 1.53.1 1.19.32 3.37-1.24 2.96-3.7 2-5.15-3.37-2.11-4.49zm231.89-.01c2.87-.69 5.17 3.82 1.79 4.51-3.1 1.23-4.87-2.88-1.79-4.51z"/><path d="M681.57 0l10.35.34c43.96.59 127.1 40.73 142.94 105.71 18.55 80.51-57.9 147.34-131.61 153.53l-13.61 1.14-17.8.13-9.95-1.08c-2.11-.23-22.52-2.85-23.35-5.07-.12-1.67-.04-2.7.32-4.2 6.99-.66 15.14 4.85 21.83 1.43l12.23-2.46c2.51-.08 5.05.11 7.49-1.14 6.2 2.18 19.51-.55 26.12-.21 3.58-1.12 6.91-2.12 10.55-1.43l17.99-6c3.37 1.53 6.73.34 10.07-1.07 30.7-5.8 56.3-31.15 72.6-57.17l-.92-.74c-2.49 1.95-6.95 9.82-10.62 9.37l1.84-11.91 6.82-8.02 3.55-6.64c3.09-1.23 2.95-4.87 5.02-6.97.37-.16.75-.21 1.2-.2.13.66.36 2.1.38 2.76l.89.41.56-1.3c-.75-2.4.32-3.81 2.39-5.1.57-2.86-.53-2.55-2.31-.89l-.84-2.73c-4 1.19-5.42-5.15-.09-4.41l1.33-1.76 3.09.68c6.07-29.85-5.12-61.44-24.32-84.88-1.24 1.82.85 2.6.91 4.46-2.9 1.89-3.52 4.61-2.49 7.74-.61 2.7.48 5.27 3.79 4.32 11.1 13.86-.61 22.95 7.68 29.8 4.62-5.89-1.13-11.76-.71-17.75 1.42-.73 3-.9 3.29 1.24.7.57.19 1.75-.67 3.03 2.4 4.4 5.64 12.18-.31 14.62l1.14 4.02c-.56.57-1.07.44-1.9.4-.9-.6-1.48-2.29-2.33-3.1l-1.86.81c.2-1.59-.07-3.03-1.45-3.89-.35-.74-.74-1.38-1.09-1.63-.94.39-2.64 1.41-3.13 2.33-.13 2.35 1.98.74 2.91.21.61 1.6-.06 3.34.05 5.15 7.58 6.38 2.42 19.11-5.49 22.66-.02 1.02 0 1.68.16 2.43 6.27 3.62 3.43 8.14.43 12.51-1.64-1.73-2.1-4.46-4.47-3.07-.92 2.73 1.35 5.14 3.79 6.8l-.02 5.51c1.13.64 2.01 1.58 1.57 3.16 1.22 1.4 3.03 1.08 4.44-.27h2.35l-.4 2.51-5.62 2.01-4.82-3.46c-1.11-1.84-2.23-3.63-3.82-5.12-1.9.34-2.62-3.86-.83-3.36 1.36.06 2.44 1.31 3.4 2.11l.85-.9-.4-1.3c-4.34-2.45-1.06-6.76-3.75-9.39-.32-.82-1.3.22-2.97.53.21-2.95-2-4.99-3.89-6.62-2.73 2.1-4.68 4.31-5.7 7.38-1.31.94-1.2 2.84-2.97 3.41.63 3.79-.17 7.53-3.5 10.2-.7-1.46-7.06-11.6-6.59-13.15-.76-.13-1.64-.02-2.79.12-1.61-1.24-2.35-3.58-4.22-3.44-2.25.04-4.49-.04-6 1.56-1.63-.41-2.95-.56-4.39-.2-1.35-4.29-5.43 2.37-9.46-4.39l-1.69.3c-.21 2.72 3.48 3.08 4.59 5.43.86.12 1.95.17 2.83.16 1.01-1.86 2.84-2.09 4.44-.44 9.41 2.55-11.64 17.08-16.09 16.38l.15 1.4 1.4.38 8.42-2.69c-.03 9.49-9.68 13.36-14.3 20.31-1.1 2.23.2 4.24.93 6.24 2.21 7.27-4.62 7.33-7.55 11.86 1.08 2.42-.1 3.86-2.39 4.69-3.05 5.58-9.68 12.01-16.59 10.72-1.61.6-3.27.69-4.52-.21-.35-2.51-1.13-4.91-3.75-6.15.7-3.18-.95-5.47-2.8-7.94-.21-1.27-2.17-1.47-1.2-2.36-1.05-1.89.46-2.33.87-3.69 4.98-4.1-2.21-10.41-4.81-13.71 1.22-1.57 1.64-3.97.28-5.46-2.34.94-4.4 1.01-5.6-1.5-4.56-.44-8.22 2.98-12.88 1.2-3.92 3.22-10.81-2.54-12.42-6.09-2.33-1.55-3.9-3.59-4.66-6.18 1.13-1.35 1.73-2.74 1.89-4.4-2.45-5.14 3.84-11.66 8.63-12.88.32-3.4 1.82-5.53 4.78-6.86a7.53 7.53 0 0 0-.19-2.98l-3-.99.5-9.42c3.13-.19 6.04.03 9.39.31 1.44-2.35-.46-6.27-3.72-5.3l-.15-2.33c2.58-1.08 5.6-.42 7.05-3.46l-7.36 1.17c-.09-2.26.34-4.19 1.95-5.79-.05-.9-.22-1.7-.63-2.11-.85.1-1.38.4-1.96 1.15.3 2.95-2.95 5.82-5.88 4.79-.04-2.71 1.31-5.48 3.09-7.22l2.22.24.38-2.69c-.49-1.38-.41-2.5 1.06-3.01.72-1.8 1.48.23 2.99.58l1.46 1.53c-.05.81-.57 1.23-1.21 1.61l3.04 4.73c1.74 1.07 2.19 2.91 1.04 4.48 2.34.82 3.63-1.26 4.29-3.42 1-1.24 3.15-.7 4.12-2.25-2.15-2.67-1.33-5.91 2.06-5.37.48 1.23-.13 2.78-.62 4.27 1.75 1.51 3.74.74 5.82 1.43 1.51-2.07 3.4-1.67 6.18-1.59l.31-5.57c1.45.18 2.54.34 3.93.31l-1.34-2.2.7-2.03-2.95-.05c-.58-1.73-1.83-3.07-2.05-4.97 1.01-1.64 5.8-5.05 2.27-6.65-1.79.55-1.7 2.54-2.1 4.13l-2.61 2.5c-.25 1.64-.22 2.95.49 4.16 1.74.88.84 2.72-.48 3.81-.09 2.99-1.91 6.49-5.27 5.89-.11-1.89-.63-3.47-1.71-4.72-.04-.69-.2-1.27-.54-1.79-1.53.58-2.62 2.17-4.18 2.58l-2.4-2.05-.17-6.01c6.61-4.18 8.73-12.39 13.72-18 1.87-.23 3.13-1.43 4.22-2.64 3.17-1.01 5.78-.91 7.13 2.03 3.91.75 7.49 1.41 10.43 3.76 1.69 3.36-1.61 4.93-4.76 4.3-.79 1.4.7 4.02 2.15 4.06 1.92-2.04 2.83-4.47 5.17-6.07-.53-1.59-.64-3.29-.35-5.07l1.95.25c.28.73.29 2.19.7 3.05l1.41.2.31-1.74 3.56-3.81c2.73 1.32 5.3-.72 5.99-3.41 3-1.3 4.76 2.92 7.6 2.28-4.98-4.64-5.02-3.99-4.85-10.94.19-.15 1.19-.25 2.2-.33l1.66 1.84 1.36-1.4 2.48.26-.41-3.41 2.98-2.01-1.55-1.63c.29-1.16-.74-2.25.75-2.39 1.05-1.76 2.3-3.39 3.84-4.98-.92-1.13-.77-2.28-.27-4.1-4.55 1.03-8.95-.02-12.07-3.21-2.3.08-3.18-4.86-.88-4.92 2.52 1.29 4.86 2.98 7.44 3.99 3.13-.44 5.02.61 5.64 3.88l2.2-.15c.19.36.57.87 1.13 1.53 3.99-2.15 8.58 1.18 7.77 5.59 1.79.42 3.24-.29 4.36-1.4.84.55 1.91.95 2.44.89l-.13-2.19c.63-.4 1.17-.67 1.83-1.42 1.87-.06 3.93 1.44 4.8 3.76 2.45-.54 4.77-2.58 2.02-4.76-.12-1.68.76-2.38 2.15-2.5 1.05-.8 2.05-.4 3.26.38.76 0 1.4-.08 2.07-.43C729.12-8.89 633.32-6.16 572.5 41.72l2.28 1.51-.19 3.76c1.12 2.01 1.86 4 1.12 6.77 1.37.89 3 .09 3.71-1 2.88 1.64 3.88 4.03 4.91 7.24 2.44-1.05 3.16-3.73 2.96-6.05l-2.88-.17c1.21-3.68 4.7-5.67 7.73-7.4 2.18 2.37 2.01 4.6 1.53 7.43 1.64.02 2.64-.5 4.37.28l-3.51 6.3c2.97 1.14.1 2-.95 3.87-1.1-.56-4.22-.03-3.89-1.8-1.88-.05-3.36-.31-5.55-.72l.36.35.51.07-.84.62c.35 1.9 3.04 1.54 5.22.93.24.59.53 1.8.71 2.75 2.35.07 4.6-.5 6.5 1.16 1.33-1.74 1.71-3.45 1.8-5.31l1.5-1.46c-.1-.92-.78-1.27-1.84-1.19-.11-2.65 2.17-5.4 4.71-5.66l-.29 2.47 1.06.47 1.11-1.58 2.4-.04-.3 2.57-4.39 2.05c-.34 2-.84 3.89-1.76 5.67 1.2 1.75.6 3.43-.13 5.72 2.63-.06 4.18-3 4.05-5.27-1.77-2.09-.37-4.14 1.3-5.91 1.46-.77 1.53-2.66 3.48-1.95 1.23-.55 2.46.37 3.32 1.34 1.21-.04 2.21.02 3.74.14l.11 5.41c1.51.45 1.77 1.57 1.35 3.32 1.67.04 1.61.58 1.7 2.04.51 1.25-.67 1.55-1.98 2.35.56 1.71 1.87 2.63 2.12 4.02 3.32.98-.83 5.66-2.93 4.84l-.21-3.23c-2.45 1.17-2.23 3.08-.14 4.61-.04 2.61-2.85 4.05-4.89 4.38-1.71-2.44-3.15-4.25-4.15-6.79-2.33 1.39-4.15-1.84-1.98-3.13 3.24 1.77 5.42-1.49 7.13-3.63-.35-.78-.95-1.61-1.54-2.54.26-2.25-1.85-4.36-4.02-2.68-.5.46.37 2.17-1.07 2.57l-.81 2.79c-1.2.82-2.02 1.01-3.3.94-.78.59-1.04 1.7-.61 2.6 1.43.67 1.53 2.62.72 3.7-1.76-.58-2.97-.94-4.72-.84l-.23-1.83-1.95-.22-7.6 4.83c-2 5.18 2.78 9 6.02 12.39-.35 1.12-1.12 3.83-.94 5 .31.44.67.7 1.28.93 2.09-2.02 1.04-5.67 4.83-6.29-.48-1.75.99-1.35 1.28-2.24-.19-.88-.61-1.36-1.47-2.27.7-.93 1.59-1.81 2.67-2.58.07-1.96.71-4.55 2.57-5.33 3.46.97 4.37 4.22 6.11 6.6-4.12 1.21.61 6.38 1.78 1.47l2.23-.09.45 8.61c2.01.63 1.65 2.87 3.59 3.54.43 1.31.3 2.87-.01 4.44-3.97 2.47 2.96 4.24 1.56 6.68-.43.49-1.19 2.01-2.32 1.67-1.34.33-1.62-.48-2.19-1.83-1.01.15-1.93.18-2.4-.34l-.26-2.23c1.81-.79 3.12-1.84 2.48-4.25-2.24 2.49-4.93 1.48-7.89.89l-.54-.65-1.11.07.25 1.29c.88.54 1.3.81 1.81 1.77-.3.45-1.07 1.19-1.88 1.99.54 2 3.15 1.57 5.08 1.45.87 1.27-.68 1.83-1.18 2.76-.73 1.11-2.1.33-3.32.17-1.25 2.44-3.34 1.6-3.35-.86-.85-.99-2.02-.06-2.81.79-1.64 0-1.17 1.45-1.59 3.31-6.68-2.54-6.01 8.43-12.4 8.86l-2.27 1.5c-1.61 2.45 2.17 5.87-1.11 8.14-3.04-4.31-1.12-10.61-8.72-7.72-1.83-2.98-6.51-2.56-5.88 1.36-2.52 2.76-2.06 8.85 1.95 9.11 1.6.42 2.03-1.04 2.6-2.14 1.2-1.02 2.49-.52 3.15.67 1.6 1.67-1.46 4.05-1.91 5.83 1.45 1.2 4.21 1.32 5.04 3.11.46.94-.27 1.96-1.03 2.93-.65 2.36 1.49 4.45 3.91 3.97l3.14 2.19c3.22-3.23 6.98-3.1 9.91.53l6.07 1.67c4.06 7.54 17.1 6.77 14.07 16.1 4.81-2.33 7.39 2.8 11.74 2.35 1.71 1.23 8.12 3.78 8.63 6.03 0 2.71-4.08 5.57-5.91 7.06 1.19 4.12-.8 8.57-4.56 9.42-1.46-.49-2.65-.55-3.97-.4-.82.82-1.41 1.92-1.19 3.5l-6.28 6.51-2.11-.31c-.15 1.06-.05 1.62.21 2.8l-4.91.14c-1.07 1.51-2.65 3.76-2.52 5.93.28.46.94.82 1.92 1.19-.94 1.47-1.86 3.16-2.05 4.9-4.65.25-9.6-6.82-7.93-11.19-2.26-2.42-4.13-5.99-2.24-9.05-1.39-3.17-.51-6.25-.89-9.5.71-3.36-.6-6.34-3.31-8.35-5.7-3.7-6.8-10.48-10.83-15.82 1.57-1.32 1.93-3.04 1.53-5.08 3.67-1.4 3.22-4.46 2.82-7.64-.8 0-1.26.07-2.37.48-2.7-1.59-5.32-4.37-6.17-7.51l-5.22-4.63c-.72-1.53-1.92-2.6-3.75-2.66-2.14-3-8.03-6.52-6.4-10.5l-2.9-10.02-2.22 1.78-.7-11.03c-1.76-1.61-1.1-4.33-.82-6.45-1.24-6.21 4.21-12.58 5.73-18.38-2.3-1.34-.87-2.97-.06-4.58.82-2.42 1.8-4.27 1.28-6.84 3.96-5.06.55-18.77-6.44-11.13l-4.03.26-10.8 18.28c-2.14 1.87-5.35 2.19-5.64-.94 25.02-52.66 83-83.72 140.21-84.7m76.63 77.84c4.75-2.86-.39-6.83-1.54-10.06-.33-.09-.97.05-1.31.23l.32 1.95c2.54 1.94 3.24 4.55 2.53 7.88zm-26.52 47.27c1.66.25 7.02 1.61 8.54.5.05-.77 0-1.22-.09-1.87-1.27-.14-3.62-1.55-4.65-2.28.01-1.15.14-1.69.49-3.09-.64-.32-1.45-.21-2.18.12-.95 1.09.14 4-1.79 4.06-1.86.12-1.86-2.31-3.65-3.02-.42.33-1.02.9-1.63 1.52-.15 1.74-.97 3.08-1.97 4.63 1.41 3.25 5.12.83 6.94-.58zm-27.25 14.99c4.29-1.2 6.61 2.02 10.15 3.17l2.53-3.67c3.61.27 6.84.12 10.04 2.05 1.91-1.92 4.11-1.61 6.89-1.47.54-1.85 1.07-4.02 1.18-6-2.07.32-3.2 1.45-5.09.5-1.76.75-3.55 1.14-4.83-.5-1.91-.58-2.23-2.11-2.09-4.07-.71-.69-1.41-1.34-1.83-1.38l-1.62 1.59.85 2.83c-3.48 1.35-6.61-1.86-7.09-5.6-2.58-1.24-4.99-2.27-6.72-4.83-.7-.15-1.19.15-1.45.8-.18 1.37 5 4.09 5.76 4.84 2.11 1.09.94 5.27-1.54 5.29l-.46-2.89c-3.23-1.05-5.5-3.44-7.87-5.87-2.06 1.48-3.7 2.7-5.98 1.58-.87 2.43-2.38 3.5-4.49 4.73-.13 3.53-3.1 4.69-6.58 5.32 2.03 2.85 5.19.33 7.41-1.24l12.57-1.08c.28 2.14-.42 3.84.27 5.88zm41.44 17.52l-4.66-5.1c-2.11-2.5-3.47-6.29-7.02-7.62 2.64 5.18 5.67 9.98 8.59 14.25 1.35-.1 1 1.43 2.15 1.22.61.12 1.14 0 1.49-.65l-.55-2.1z"/><path d="M733.83 72.05c-1.88.57-4.04-.36-5.26-1.43-2.16-1.53-1.88-4.09-1.43-6.34l-.06-4.2 6.39-6.52 2.41.11-.31 2.4c-3.59 3.03-5.55 8.09-3.73 12.67 1.74.4 2.58 1.51 1.99 3.31zm-657.2 45.42c4.54-7.93 22.11-27.53 20.85-35.26-3.41-3.18-12.62-3.44-16.99-3.93-1.6 1.72-1.92-1.12-3.48-.77-.34-3.04-.23-5.64-.17-8.61.34-1.18 2.15-.97 3.62-1.28 13.22 1.33 41.72 1.76 55.17 1.56 39.08-3.26 18.08-9.26 44.61 34.24.8.21.9.28 1.63.68 4.11-25.44 43.46-31.06 64.81-34.09 38.62-6.03 78.98 2.1 117.65-1.24.23-1.17 1.36-.75 2.28-.74.38.57.34 1.56.24 2.58-3.24 4.88-5.16 10.51-4.64 16.36-2.78 6.09-.84 17.86-1.14 24.4l-16.98.07c-.52-.71-.93-1.22-1.51-1.82l-.04-11.3c-12.52-19.72-54.63-21.58-76.06-16.55-15.18.07-23.77 18.29-9.7 26.87 14.72 10.28 39.21 10.35 55.77 15.28 21.85 2.89 46.74 6.14 63.87 21.31 13.65-18.94 32.24-42.41 43.22-62.9-4.53-6.17-14.37-4.93-21.33-6.18l.05-9.7c13.56-.2 31.38 1.56 45.01 1.52 12.6.15 27.32-2.08 39.6-2.55 11.93 29.15 38.08 67.35 55.09 94.43 9.79 14.09 18.45 36.74 39.07 34.39.4 3.41.34 6.13.1 9.37l-76.14.07c-2.88 1.98-6.24.78-9.65 1.54-5.51-11.9-15.53-31.78-22.66-42.7l-1.33-3.22-.61.61-.34-.25.71-.74-3.35-5.73-64.83-.02c-5.18 11.95-11.83 24.24-11.49 37.35 4.33 5 12.02 3.34 18.16 3.74 1.85 1.42.94 3.91 1.11 6.12.92 3.7-2.68 6.32-5.83 3.25-4.29.73-76.99-1.82-78.16 1.65-4.47-4.2-9.91 1.12-15.27-.27-17.54 2.87-35.63 1.66-53.39 1.61-24.36-1.05-59.5-2.87-83.94-.05-2.6-6.34-11.36-22.71-14.72-28.94-.46-.28-.4-1.07-.68-1.88.45-.94-2.06.19-.77-.91l-9.4-16.37c-1.36-.5-.26-2.58-1.8-2.89-.61-1.5-2.31-.76-3.79-.92l-61.35.27c-5.42 11.21-9.53 22.62-12.01 34.55 1.75 8.21 12.84 5.56 19.47 6.35.33 3.19.24 6.47.16 9.74-22.78.71-62.15-2.01-85.33.78l-.04-10.65c18.25 1.72 30.11-15.15 39.82-28.03l36.81-50.16zm366.4 24.36c4.87-.49 9.52-.46 14.47.16-5.71-9.16-21.44-36.08-27.11-45.77l-25.77 45.27 38.41.35zm-314.6-11.16l-13.44-23.13c-.25.39-.41.57-.63.72l.08-.51.62-.41-5.62-9.29c-9.34 14.31-16.27 30.1-25.71 44.9 17.87.6 34.32-.44 52.41.06-3.1-4.47-5.34-8.44-7.7-12.35zm179.11 58.66c7.19-3.92 9.89-11.04 5.76-18.04-4.98-6.61-15.68-8.96-23.54-11.86-27.41-7.03-61.51-10.08-86.89-22.65-.16-.45-1.29.35-2.06.6 12.12 14.06 22.78 39.07 36.42 51.86 22.33 7.74 48.13 9.03 70.31.08z" fill="currentColor"/><path d="M794.86 257.44l-1.84-2.18c-1.07-.06-2.4-.09-2.47.87 1.28 1.98 1.16 3.74-1.27 4.53l-1.94-2.1-.08-9.37c2.27-8.16 18.19-1.61 9.07 5.37 1.48 1.86 3.37 3.19 3.02 5.8-2.1.71-3.86-.74-4.5-2.92zm.4-8.06l-3.07-.59-1.69 1.18.36 1.61c1.21.38 3.23.19 4.41-.21.17-.61.16-1.17-.01-1.97z"/></svg>
